<?xml version="1.0" encoding="UTF-8"?>
<svg width="30px" height="21px" viewBox="0 0 30 21" version="1.1" xmlns="http://www.w3.org/2000/svg" xmlns:xlink="http://www.w3.org/1999/xlink">
    <!-- Generator: Sketch 52.2 (67145) - http://www.bohemiancoding.com/sketch -->
    <title>车辆定制</title>
    <desc>Created with Sketch.</desc>
    <g id="Page-1" stroke="none" stroke-width="1" fill="none" fill-rule="evenodd">
        <g id="车辆定制" transform="translate(15.000000, 10.500000) scale(-1, 1) translate(-15.000000, -10.500000) " fill="#333333" fill-rule="nonzero">
            <path d="M27.3903666,8.94112586e-05 L12.9403307,8.94112586e-05 C11.5109812,8.94273232e-05 10.3522646,1.15135229 10.3522646,2.57150701 L10.3522646,4.71435504 L5.71531273,4.71435504 C2.56031079,4.71789775 0.00356564572,7.25819586 0,10.3929023 L0,16.2857344 C5.83482749e-17,16.7591193 0.386238894,17.1428736 0.862688716,17.1428736 L3.24586627,17.1428736 C3.24586627,17.2135875 3.23508267,17.2843015 3.23508267,17.3571584 C3.23508267,19.3690442 4.87659796,21 6.9015097,21 C8.92642143,21 10.5679367,19.3690442 10.5679367,17.3571584 L10.5679367,17.1428736 L19.4320632,17.1428736 L19.4320632,17.3571584 C19.4320632,19.3690442 21.0735785,21 23.0984903,21 C25.123402,21 26.7649173,19.3690442 26.7649173,17.3571584 L26.7649173,17.1428736 L27.4119339,17.1428736 C28.8412833,17.1428736 30,15.9916107 30,14.5714559 L30,2.57150701 C30.000024,1.88579565 29.7243949,1.22847702 29.2343638,0.74562194 C28.7443326,0.262766857 28.0804936,-0.00562485325 27.3903666,8.94112586e-05 Z M6.9015097,19.2857216 C5.82949761,19.2857216 4.9604601,18.4222744 4.9604601,17.3571584 C4.9604601,16.2920423 5.82949761,15.4285951 6.9015097,15.4285951 C7.97352179,15.4285951 8.84255929,16.2920423 8.84255929,17.3571584 C8.84255929,18.4222744 7.97352179,19.2857216 6.9015097,19.2857216 Z M10.3522646,15.4285951 L10.0071891,15.4285951 C9.33652228,14.3666183 8.16334948,13.7219208 6.9015097,13.7219208 C5.63966992,13.7219208 4.46649711,14.3666183 3.79583034,15.4285951 L1.72537743,15.4285951 L1.72537743,12.0000383 L10.3522646,12.0000383 L10.3522646,15.4285951 Z M10.3522646,10.2857599 L1.72537743,10.2857599 C1.78374422,8.1408019 3.54920995,6.43132927 5.70884255,6.42863346 L10.3522646,6.42863346 L10.3522646,10.2857599 Z M23.0769231,19.2857216 C22.004911,19.2857216 21.1358735,18.4222744 21.1358735,17.3571584 C21.1358735,16.2920423 22.004911,15.4285951 23.0769231,15.4285951 C24.1489352,15.4285951 25.0179727,16.2920423 25.0179727,17.3571584 C25.0179727,18.4222744 24.1489352,19.2857216 23.0769231,19.2857216 Z M28.2530553,14.5714559 C28.2530553,14.7987834 28.1621652,15.0168001 28.0003797,15.1775449 C27.8385941,15.3382897 27.6191659,15.4285951 27.3903666,15.4285951 L26.1826024,15.4285951 C25.5119357,14.3666183 24.3387629,13.7219208 23.0769231,13.7219208 C21.8150833,13.7219208 20.6419105,14.3666183 19.9712437,15.4285951 L12.077642,15.4285951 L12.077642,2.57150701 C12.077642,2.09812212 12.4638809,1.71436785 12.9403307,1.71436783 L27.3903666,1.71436783 C27.8668164,1.71436783 28.2530553,2.09812211 28.2530553,2.57150701 L28.2530553,14.5714559 Z" id="Shape"></path>
        </g>
    </g>
</svg>