<svg t="1564394645448" class="icon" viewBox="0 0 1024 1024" version="1.1" xmlns="http://www.w3.org/2000/svg" p-id="1564" width="200" height="200"><path d="M513.332158 0C234.059431 2.737968 9.546062 232.727273 12.28403 512c-2.737968 279.272727 221.775401 509.262032 501.048128 512 279.272727-2.737968 503.786096-232.727273 498.310161-512C1014.380287 232.727273 789.866918 2.737968 513.332158 0z m120.470589 903.529412h-8.213904c-10.951872 0-21.903743-8.213904-24.641711-19.165776L587.257292 821.390374c-2.737968-8.213904-5.475936-13.68984-13.68984-16.427807l19.165776-158.802139c35.593583-21.903743 60.235294-57.497326 68.449198-98.566845l139.636363-54.759358c5.475936 5.475936 10.951872 8.213904 19.165776 8.213903l68.449198-2.737968c13.68984 0 24.641711 10.951872 24.641711 24.641712-5.475936 172.491979-117.73262 323.080214-279.272727 380.57754z m13.689839-375.101605l-8.213904 8.213904c-8.213904 38.331551-30.117647 71.187166-62.973262 93.090909-2.737968 0-5.475936 5.475936-5.475936 8.213904l-21.903743 167.016043h-79.401069l-21.903744-164.278075c0-2.737968-2.737968-5.475936-5.475935-8.213904-32.855615-19.165775-57.497326-54.759358-65.71123-93.090909 0-2.737968-2.737968-8.213904-8.213904-8.213904l-136.898396-60.235294 21.903743-76.663101 158.802139 21.903743c5.475936 0 8.213904-2.737968 10.951872-5.475936 49.283422-49.283422 131.42246-49.283422 180.705882 0 2.737968 2.737968 5.475936 2.737968 8.213904 2.737968l161.540107-21.903743 21.903743 76.663101-147.850267 60.235294zM203.941784 501.048128c8.213904 0 13.68984-2.737968 19.165775-8.213903l134.160428 54.759358c10.951872 41.069519 35.593583 76.663102 68.449198 98.566845l19.165775 158.802139c-8.213904 2.737968-13.68984 8.213904-13.689839 16.427807l-8.213904 65.71123c-2.737968 10.951872-13.68984 19.165775-24.641711 19.165776h-8.213904c-164.278075-54.759358-276.534759-208.085561-279.272727-383.315508 0-13.68984 8.213904-24.641711 21.903743-24.641712h2.737968l68.449198 2.737968z m577.71123-147.850267c-5.475936 2.737968-10.951872 8.213904-13.68984 16.427807l-153.326203 21.903744c-27.379679-24.641711-65.71123-41.069519-104.042781-41.069519s-73.925134 13.68984-104.04278 41.069519l-150.588236-21.903744c-2.737968-8.213904-5.475936-13.68984-10.951871-16.427807l-60.235294-30.117647c-10.951872-5.475936-16.427807-21.903743-10.951872-32.855615v-2.737968C288.818789 101.304813 532.497934 43.807487 718.679752 158.802139c52.02139 32.855615 98.566845 76.663102 131.42246 131.42246 5.475936 13.68984 2.737968 27.379679-10.951872 35.593583l-57.497326 27.379679zM513.332158 76.663102h-24.641711V24.641711h49.283423v52.021391h-24.641712z m0 922.695187C245.011303 996.620321 34.187773 777.582888 36.925741 512 34.187773 260.106952 225.845527 49.283422 475.000607 24.641711v52.021391c-131.42246 10.951872-251.893048 84.877005-323.080213 197.133689-13.68984 21.903743-8.213904 52.02139 13.689839 65.71123 2.737968 0 2.737968 2.737968 5.475936 2.737968L231.321463 372.363636l-27.379679 98.566845v2.737968l-65.71123-5.475936h-5.475936c-13.68984 0-24.641711 5.475936-32.855615 13.68984 0-10.951872 2.737968-21.903743 2.737968-32.855615 0-2.737968 0-5.475936-2.737968-8.213904h-2.737968c-2.737968 0-5.475936 0-8.213903 2.737968v2.737968c-2.737968 19.165775-2.737968 35.593583-2.737968 54.759358-2.737968 5.475936-2.737968 13.68984-2.737968 19.165776 13.68984 188.919786 128.684492 347.721925 298.438502 402.481283 5.475936 2.737968 10.951872 2.737968 13.68984 2.737968 21.903743 0 43.807487-16.427807 46.545455-38.331551l10.951871-62.973262H557.139645l10.951872 62.973262c2.737968 13.68984 10.951872 24.641711 24.641711 32.855615-8.213904 8.213904-21.903743 10.951872-32.855615 10.951872-2.737968 0-5.475936 5.475936-5.475936 8.213904 0 2.737968 2.737968 5.475936 5.475936 5.475935 21.903743-2.737968 43.807487-8.213904 62.973262-13.689839 5.475936 0 10.951872 0 13.689839-2.737968 172.491979-57.497326 292.962567-219.037433 298.438503-402.481283 0-13.68984-2.737968-27.379679-13.689839-35.593583-8.213904-10.951872-21.903743-16.427807-35.593583-16.427808h-2.737968l-65.71123 2.737968-21.903744-93.090909v-2.737968-5.475936l57.497327-27.379679c13.68984-5.475936 21.903743-16.427807 24.641711-30.117647 10.951872 19.165775 19.165775 41.069519 27.379679 62.973262 0 2.737968 2.737968 2.737968 5.475936 2.737968h2.737968c2.737968 0 5.475936-5.475936 2.737968-8.213904-10.951872-30.117647-24.641711-60.235294-41.069519-87.614973 0-2.737968-2.737968-5.475936-5.475936-10.951872-68.449198-112.256684-188.919786-186.181818-320.342246-197.133689v-54.759359c249.15508 24.641711 440.812834 235.465241 438.074866 487.358289 2.737968 265.582888-210.823529 484.620321-473.668449 487.358289z" p-id="1565" fill="#515151"></path><path d="M559.877613 512c-2.737968-27.379679-24.641711-46.545455-52.021391-43.807487-24.641711 2.737968-41.069519 19.165775-43.807486 43.807487 2.737968 27.379679 24.641711 46.545455 52.02139 43.807487 24.641711 0 41.069519-19.165775 43.807487-43.807487z m-46.545455 41.069519c-21.903743 0-38.331551-16.427807-38.331551-38.331551 0-21.903743 16.427807-38.331551 38.331551-38.331551 21.903743 0 38.331551 16.427807 38.331551 38.331551 0 19.165775-19.165775 38.331551-38.331551 38.331551z m-32.855615 16.427807c-8.213904-5.475936-19.165775-2.737968-21.903743 5.475936v2.737968c-8.213904 5.475936-8.213904 19.165775 0 24.641711 2.737968 2.737968 5.475936 2.737968 10.951872 2.737968s10.951872-2.737968 13.689839-8.213904c8.213904-8.213904 5.475936-19.165775-2.737968-27.379679z m-10.951871-112.256684c2.737968 0 5.475936 0 8.213903-2.737968 8.213904-5.475936 10.951872-16.427807 5.475936-24.641711s-16.427807-10.951872-24.641711-5.475936c-8.213904 5.475936-10.951872 16.427807-5.475936 24.641711 2.737968 5.475936 8.213904 8.213904 16.427808 8.213904z m76.663101-2.737968c2.737968 2.737968 5.475936 2.737968 10.951872 2.737968s10.951872-2.737968 13.689839-8.213904c5.475936-8.213904 2.737968-19.165775-5.475935-24.641711-8.213904-5.475936-19.165775 0-24.641712 8.213903-5.475936 8.213904-2.737968 19.165775 5.475936 21.903744z m49.283423 35.593583c-10.951872 0-19.165775 8.213904-19.165776 19.165775v2.737968c0 10.951872 8.213904 19.165775 16.427808 19.165775 10.951872 0 19.165775-8.213904 19.165775-19.165775 2.737968-10.951872-5.475936-19.165775-16.427807-21.903743z m-167.016043 0c-10.951872 0-19.165775 8.213904-19.165775 19.165775v2.737968c0 10.951872 8.213904 19.165775 19.165775 19.165775 10.951872 0 19.165775-8.213904 19.165775-19.165775 0-10.951872-8.213904-19.165775-19.165775-21.903743z m117.73262 76.663101c-8.213904 5.475936-10.951872 16.427807-5.475936 24.641712 2.737968 5.475936 8.213904 8.213904 16.427808 8.213903 2.737968 0 8.213904 0 10.951872-2.737968 8.213904-5.475936 10.951872-16.427807 5.475935-24.641711s-19.165775-10.951872-27.379679-5.475936z" p-id="1566" fill="#515151"></path></svg>