<?xml version="1.0" standalone="no"?><!DOCTYPE svg PUBLIC "-//W3C//DTD SVG 1.1//EN" "http://www.w3.org/Graphics/SVG/1.1/DTD/svg11.dtd"><svg class="icon" width="200px" height="200.00px" viewBox="0 0 1024 1024" version="1.1" xmlns="http://www.w3.org/2000/svg"><path d="M884.9 474.5C867.3 297.4 726.5 156.6 549.5 139V64C768 82.1 942 256 960 474.4h-75.1z m-517.5 0h-76.9c15.9-93.9 90-167.8 184-183.6v76.5C422 381 381 422.2 367.4 474.5z m-228.3 0H64C82.1 256.1 256.1 82.2 474.5 64.1v75c-177.1 17.5-317.8 158.3-335.4 335.4z m0 75C156.7 726.6 297.5 867.4 474.5 885v75C256.1 941.8 82.1 767.9 64 549.5h75.1z m335.4 107.1v76.5c-94-15.9-168.2-89.7-184-183.6h76.9C381 601.8 422 643 474.5 656.6z m182.1-107.1h76.9c-15.9 93.9-90 167.8-184 183.6v-76.5C602 643 643 601.8 656.6 549.5z m76.9-75h-76.9C643 422.2 602 381 549.5 367.4v-76.5c94 15.8 168.1 89.7 184 183.6z m151.4 75H960c-18.1 218.4-192.1 392.4-410.5 410.4v-75c177.1-17.5 317.8-158.3 335.4-335.4z" /></svg>