<?xml version="1.0" standalone="no"?><!DOCTYPE svg PUBLIC "-//W3C//DTD SVG 1.1//EN" "http://www.w3.org/Graphics/SVG/1.1/DTD/svg11.dtd"><svg t="1548234761640" class="icon" style="" viewBox="0 0 1024 1024" version="1.1" xmlns="http://www.w3.org/2000/svg" p-id="5595" xmlns:xlink="http://www.w3.org/1999/xlink" width="200" height="200"><defs><style type="text/css"></style></defs><path d="M41.6 508v-35.2h164v35.2H41.6z m0-214.4v-35.2h164v35.2H41.6z" p-id="5596"></path><path d="M123.2 1024c-38.4 0-39.2-37.6-39.2-39.2v-168h35.2v172h820.8V36H119.2v128.8h-35.2V39.2C84 0 121.6 0 123.2 0H936c1.6 0 39.2 0.8 39.2 39.2v945.6c0 1.6-0.8 39.2-39.2 39.2H123.2z" p-id="5597"></path><path d="M311.2 784.8c-3.2 0-6.4-0.8-8.8-2.4-4.8-2.4-8-6.4-9.6-11.2-1.6-4.8-0.8-10.4 1.6-15.2 28.8-53.6 75.2-96.8 131.2-121.6l17.6-8-16-11.2c-55.2-37.6-88.8-100-88-167.2 0-53.6 20.8-104 58.4-142.4 37.6-37.6 88-59.2 140.8-59.2 52.8 0 104 21.6 140.8 59.2 37.6 38.4 58.4 88.8 58.4 142.4 0 67.2-32.8 129.6-88 167.2l-16 11.2 17.6 8c55.2 24.8 102.4 68 131.2 121.6 4.8 9.6 1.6 21.6-8 26.4-2.4 1.6-5.6 2.4-8.8 2.4-7.2 0-13.6-4-17.6-10.4-40-74.4-118.4-123.2-203.2-125.6h-13.6C445.6 652 368 700 328 774.4c-3.2 6.4-9.6 10.4-16.8 10.4zM376.8 448c-0.8 87.2 67.2 158.4 154.4 161.6H544c88-4 155.2-75.2 154.4-162.4 0-88.8-72-161.6-160.8-162.4-88.8 1.6-160.8 74.4-160.8 163.2zM41.6 723.2V688h164v35.2H41.6z" p-id="5598"></path></svg>