<?xml version="1.0" encoding="UTF-8"?>
<svg width="26px" height="26px" viewBox="0 0 26 26" version="1.1" xmlns="http://www.w3.org/2000/svg" xmlns:xlink="http://www.w3.org/1999/xlink">
    <!-- Generator: Sketch 52.2 (67145) - http://www.bohemiancoding.com/sketch -->
    <title>定制管理</title>
    <desc>Created with Sketch.</desc>
    <g id="Page-1" stroke="none" stroke-width="1" fill="none" fill-rule="evenodd">
        <g id="定制管理" fill="#000000" fill-rule="nonzero">
            <path d="M16.1609561,20.462886 L18.2894983,18.3323941 C18.4019889,18.2188167 18.5553514,18.1551303 18.7152067,18.1556114 C18.9583668,18.1568624 19.177048,18.3038555 19.2700178,18.5285442 C19.3629875,18.7532329 19.3121011,19.0117654 19.1409151,19.1844609 L17.012373,21.3156028 L17.8637899,22.1676696 L19.5698733,20.4602863 C19.6823638,20.3467089 19.8357264,20.2830225 19.9955817,20.2835036 C20.2395766,20.2847604 20.4588336,20.4327482 20.5512636,20.6585619 C20.6436936,20.8843755 20.5911274,21.143626 20.4180404,21.3156028 L18.7152067,23.0203863 L18.7184564,23.022986 L19.9955817,24.3020611 L24.0089397,20.2867532 C25.1853249,19.1084183 25.1853249,18.405187 24.0089397,17.2268521 L20.6188708,13.8328835 C20.4902725,13.7196567 20.4168267,13.5564175 20.4173905,13.3850772 C20.4183137,13.1362853 20.5717467,12.9135309 20.8038682,12.8239881 C21.0359896,12.7344453 21.2992704,12.7964488 21.467038,12.9801668 L25.1034329,16.6243609 C26.2800847,17.8025162 26.2800847,19.7110891 25.1034329,20.8892444 L20.8437488,25.1541279 L19.992332,26.0068446 L19.1409151,25.1541279 L14.2059471,20.2107107 C14.0347611,20.0380151 13.9838748,19.7794827 14.0768445,19.554794 C14.1698142,19.3301053 14.3884954,19.1831122 14.6316555,19.1818612 C14.8019389,19.1818612 14.954024,19.2514044 15.0632134,19.3638434 L16.1616061,20.462886 L16.1609561,20.462886 Z M1.25661167,25.020241 C1.04370304,25.0199824 0.843435245,24.9191386 0.716449059,24.7482449 C0.589462872,24.5773512 0.550691412,24.3565041 0.611874617,24.1525757 L2.75276556,17.0052237 C2.78591232,16.8986341 2.84375667,16.8011436 2.92304891,16.7218514 L3.68347465,15.9640254 C3.94656318,15.7027035 4.37124327,15.7027035 4.6343318,15.9640254 L9.74283294,21.0809757 C10.0043818,21.3447309 10.0043818,21.7700274 9.74283294,22.0337826 L8.99215624,22.7857592 C8.90961432,22.8683011 8.80952409,22.9261455 8.69708504,22.9592923 L1.43534421,24.9961933 C1.3771293,25.0133244 1.31663318,25.0214344 1.25596173,25.020241 L1.25661167,25.020241 Z M3.99284444,17.5557199 L2.25101454,23.3700521 L8.16478704,21.7114141 L8.31687218,21.559329 L4.15727838,17.391286 L3.99284444,17.5557199 Z M11.0563546,20.5239801 C10.8769722,20.5239801 10.7066888,20.4537869 10.581901,20.3263994 L5.46755044,15.2087991 C5.3420258,15.0826736 5.27106991,14.9122861 5.26996974,14.7343455 C5.26996974,14.5543131 5.3401629,14.3833797 5.46755044,14.2592419 L15.4583748,4.25606874 C15.5831626,4.13128092 15.7566956,4.0578381 15.9328284,4.0578381 C16.1122109,4.0578381 16.2824943,4.12803125 16.4072821,4.25606874 L21.518383,9.37301905 C21.7799319,9.63677428 21.7799319,10.0620708 21.518383,10.325826 L11.5301584,20.3263994 C11.404112,20.4520425 11.2336737,20.5230196 11.0557047,20.5239801 L11.0563546,20.5239801 Z M6.89351117,14.7310958 L11.053105,18.8952391 L20.0937221,9.84487297 L15.9341283,5.68072961 L6.89351117,14.7310958 Z M22.7110165,8.82187286 C22.531634,8.82187286 22.3613507,8.75232965 22.2365628,8.62429216 L17.1215623,3.5099416 C16.8600134,3.24618637 16.8600134,2.82088989 17.1215623,2.55713466 L18.5754704,1.09867708 C19.1103681,0.563129392 19.7642043,0.018482565 20.5792247,0.018482565 C21.3942451,0.018482565 22.0480812,0.563129364 22.582979,1.09867708 L24.6380783,3.15702607 C25.173626,3.69257376 25.7176229,4.34705986 25.7176229,5.16273021 C25.7176229,5.97905048 25.173626,6.63353659 24.6387282,7.16908428 L23.1848202,8.62429216 C23.0595876,8.75114748 22.8886227,8.82234382 22.7103666,8.82187286 L22.7110165,8.82187286 Z M18.5514227,3.03223827 L22.7110165,7.1963816 L23.6904709,6.2162773 C24.1519258,5.75352249 24.3742041,5.40970606 24.3742041,5.16338013 C24.3742041,4.91640426 24.149326,4.57193788 23.6904709,4.10983301 L21.6347216,2.05148403 C21.1726168,1.58937916 20.8288003,1.36710086 20.5824744,1.36710086 C20.3361484,1.36710086 19.9929819,1.59197891 19.5308771,2.05148403 L18.5514227,3.03223827 Z M12.5525086,4.24956939 C12.6922449,4.35940866 12.783236,4.52969202 12.7864857,4.72402305 C12.7864857,5.05614063 12.5161121,5.32716416 12.1846445,5.32716416 C12.0265633,5.32672489 11.8749309,5.26443896 11.7621857,5.15363108 L11.7589361,5.15688077 L8.79132585,2.18602091 C7.61494074,1.00768597 6.91235933,1.00768597 5.73532428,2.18602091 L1.7252159,6.20132878 L3.00169123,7.47975392 L4.27556684,6.20392853 C4.38903878,6.0895142 4.5433842,6.02496975 4.70452495,6.02454604 C4.94851992,6.02580288 5.1677769,6.17379068 5.26020693,6.39960434 C5.35263696,6.62541801 5.3000707,6.88466847 5.12698371,7.05664525 L3.85310809,8.33182073 L4.70452495,9.18453745 L6.83306709,7.05339556 C6.94555766,6.93981816 7.09892019,6.87613173 7.25877551,6.87661282 C7.50519481,6.87777703 7.72617982,7.02857203 7.81710678,7.25760503 C7.90803375,7.48663803 7.85065463,7.74794464 7.67213516,7.91781114 L5.55594182,10.0366042 L6.21887705,10.7001894 C6.38818175,10.8735863 6.43740764,11.1314089 6.34389673,11.354985 C6.25038582,11.5785611 6.03225973,11.7245635 5.78991894,11.7257893 C5.62056703,11.7261397 5.45909855,11.6542708 5.34601231,11.5282086 L0.873149119,7.0501459 L0.0217322578,6.19807909 L5.13023337,1.08372854 C5.69473177,0.518161104 6.46099781,0.200338608 7.26007538,0.200338608 C8.05915296,0.200338608 8.825419,0.518161104 9.3899174,1.08372854 L12.5525086,4.24956939 Z" id="Shape"></path>
        </g>
    </g>
</svg>