<?xml version="1.0" standalone="no"?><!DOCTYPE svg PUBLIC "-//W3C//DTD SVG 1.1//EN" "http://www.w3.org/Graphics/SVG/1.1/DTD/svg11.dtd"><svg t="1556003761726" class="icon" style="" viewBox="0 0 1024 1024" version="1.1" xmlns="http://www.w3.org/2000/svg" p-id="15620" xmlns:xlink="http://www.w3.org/1999/xlink" width="200" height="200"><defs><style type="text/css"></style></defs><path d="M512.000512 625.771183c-88.435145 0-172.056658 38.502919-229.208309 105.881492-10.225899 12.031011-8.42181 29.478382 3.00852 39.70428 11.429307 10.226922 29.478382 8.42181 39.703257-3.00852 46.925752-54.742788 114.90603-86.626963 187.097212-86.626963 71.589478 0 140.17146 31.28247 187.093119 86.626963 10.226922 12.033058 27.67327 13.236466 39.1036 3.00852 12.034081-10.225899 13.235442-27.67327 3.009544-39.1036C684.056146 664.874783 600.432587 625.771183 512.000512 625.771183z" p-id="15621" fill="#515151"></path><path d="M512.000512 64.184835c-247.25636 0-448.186625 200.930265-448.186625 448.184579 0 246.650563 201.532993 447.583898 448.186625 447.583898 247.252267 0 448.184579-200.932312 448.184579-447.583898C960.184067 265.116123 759.252779 64.184835 512.000512 64.184835zM512.000512 904.607796c-216.57457 0-392.238382-176.266539-392.238382-392.238382 0-216.572524 176.265516-392.237359 392.238382-392.237359 216.571501 0 392.236336 175.665859 392.236336 392.237359C904.236847 728.942961 727.972355 904.607796 512.000512 904.607796z" p-id="15622" fill="#515151"></path><path d="M369.423259 509.963621c-24.664749 0-45.12064-20.453844-45.12064-45.119617L324.302619 403.482471c0-24.665773 20.455891-45.12064 45.12064-45.12064s45.11757 20.454868 45.11757 45.12064l0 61.361533C414.540829 489.509776 394.088008 509.963621 369.423259 509.963621L369.423259 509.963621z" p-id="15623" fill="#515151"></path><path d="M654.575718 509.963621c-24.665773 0-45.11757-20.453844-45.11757-45.119617L609.458147 403.482471c0-24.665773 20.451798-45.12064 45.11757-45.12064s45.119617 20.454868 45.119617 45.12064l0 61.361533C699.695335 489.509776 679.844218 509.963621 654.575718 509.963621L654.575718 509.963621z" p-id="15624" fill="#515151"></path></svg>