<?xml version="1.0" encoding="UTF-8"?>
<svg width="26px" height="23px" viewBox="0 0 26 23" version="1.1" xmlns="http://www.w3.org/2000/svg" xmlns:xlink="http://www.w3.org/1999/xlink">
    <!-- Generator: Sketch 52.2 (67145) - http://www.bohemiancoding.com/sketch -->
    <title>二手车定制</title>
    <desc>Created with Sketch.</desc>
    <g id="Page-1" stroke="none" stroke-width="1" fill="none" fill-rule="evenodd">
        <g id="二手车定制" fill="#000000" fill-rule="nonzero">
            <g id="Group-2" transform="translate(7.000000, 8.000000)">
                <path d="M0.81206629,11.5969456 L9.7447954,11.5969456 L0.81206629,11.5969456 Z M3.24826514,1.8521502 L9.7447954,1.8521502 L3.24826514,1.8521502 Z M3.17517916,1 L9.81788136,1 C10.2263507,1 10.5568617,1.3638057 10.5568617,1.81206629 C10.5568617,2.26032688 10.2263507,2.62413258 9.81788136,2.62413258 L3.17517916,2.62413258 C2.76670982,2.62413258 2.43619885,2.26032688 2.43619885,1.81206629 C2.43619885,1.3638057 2.76670982,1 3.17517916,1 Z M3.24826514,5.10041533 L9.7447954,5.10041533 L3.24826514,5.10041533 Z M3.17517916,4.24826514 L9.81788136,4.24826514 C10.2263507,4.24826514 10.5568617,4.61207084 10.5568617,5.06033143 C10.5568617,5.50859202 10.2263507,5.87239772 9.81788136,5.8723977 L3.17517916,5.8723977 C2.76670982,5.8723977 2.43619885,5.508592 2.43619885,5.06033143 C2.43619885,4.61207086 2.76670982,4.24826514 3.17517916,4.24826514 Z" id="Shape"></path>
                <path d="M8.60748922,0.734836848 L9.98718985,2.11453746 L8.60667715,0.734024779 L8.60748922,0.734836848 Z M9.18243216,0.160705978 L10.5605086,1.53878247 C10.8138733,1.79295922 10.7627131,2.25583701 10.4451952,2.57254285 C10.1284894,2.88924869 9.6656116,2.94122094 9.41143485,2.68785626 L8.03335837,1.30977977 C7.77999369,1.05560301 7.83115388,0.592725231 8.14867179,0.276019389 C8.46537763,-0.0406864521 8.92825541,-0.0926587068 9.18243216,0.160705978 Z M3.73509154,5.60723455 L5.11398009,6.98612309 L3.73509154,5.60723455 Z M4.31003446,5.03310368 L5.68811096,6.41118015 C5.94147564,6.6653569 5.89031545,7.12823469 5.57279752,7.44494053 C5.25609168,7.76164637 4.7932139,7.81361862 4.53903715,7.56025394 L3.16096067,6.18217747 C2.90759599,5.92800071 2.95875618,5.46512293 3.27627409,5.14841709 C3.59297993,4.83171125 4.05585771,4.77973899 4.31003446,5.03310368 Z" id="Shape"></path>
            </g>
            <path d="M17.875,0 C20.2041667,0 21.0708333,1.73333334 21.6666667,2.87083334 C21.7208333,2.925 21.7208333,3.03333334 21.775,3.0875 L23.725,8.66666666 C24.8625,9.37083332 26,10.6166667 26,12.1875 L26,19.4458333 C26,21.125 24.7541667,22.4791667 23.075,22.6958333 C21.3958333,22.9125 19.825,21.8833333 19.3916667,20.2583333 L6.60833334,20.3125 C6.175,21.8833333 4.60416668,22.9125 2.925,22.6958333 C1.24583334,22.4791667 -7.10542736e-14,21.0708333 -7.10542736e-14,19.4458333 L-7.10542736e-14,12.1875 C-7.10542736e-14,10.6166667 1.1375,9.37083334 2.32916666,8.66666666 L4.27916666,3.0875 C4.27916666,3.03333334 4.33333332,2.925 4.33333334,2.87083334 C4.92916666,1.73333334 5.79583334,0 8.125,0 L17.875,0 Z M17.875,1.57083334 L8.125,1.57083334 C6.87916666,1.57083334 6.44583334,2.32916668 5.79583334,3.575 L5.79583334,3.62916666 L3.84583334,9.15416666 L3.68333334,9.69583334 L3.19583334,10.0208333 C2.81666668,10.2375 1.67916668,11.05 1.67916666,12.1875 L1.67916666,19.4458333 C1.67916666,20.3125 2.32916666,21.0166667 3.19583334,21.125 C4.0625,21.2333333 4.875,20.7458333 5.09166666,19.8791667 L5.41666666,18.7416667 L6.6625,18.7416667 L19.4458333,18.6875 L20.6916667,18.6875 L21.0166667,19.8791667 C21.2333333,20.6916667 22.0458333,21.2333333 22.9125,21.125 C23.7791667,21.0166667 24.4291667,20.3125 24.4291667,19.4458333 L24.4291667,12.1875 C24.4291667,11.05 23.2375,10.2375 22.9125,10.0208333 L22.425,9.69583334 L22.2625,9.15416666 L20.2041667,3.62916666 L20.2041667,3.575 C19.5541667,2.32916666 19.1208333,1.57083334 17.875,1.57083334 Z" id="Shape"></path>
        </g>
    </g>
</svg>