<?xml version="1.0" encoding="UTF-8"?>
<svg width="26px" height="24px" viewBox="0 0 26 24" version="1.1" xmlns="http://www.w3.org/2000/svg" xmlns:xlink="http://www.w3.org/1999/xlink">
    <!-- Generator: Sketch 52.2 (67145) - http://www.bohemiancoding.com/sketch -->
    <title>服务定制</title>
    <desc>Created with Sketch.</desc>
    <g id="Page-1" stroke="none" stroke-width="1" fill="none" fill-rule="evenodd">
        <g id="服务定制" fill="#000000">
            <path d="M21.33235,15.0510265 C21.1010042,15.0510265 20.8739104,14.9418053 20.7342687,14.7392124 C20.5099917,14.4156637 20.5974438,13.9752743 20.9275354,13.7567788 C22.6724333,12.6008496 24.5555917,9.99432743 24.5555917,7.80063717 C24.5555917,4.28846018 21.6412896,1.43102655 18.0583813,1.43102655 C16.3487458,1.43102655 14.7321958,2.08157522 13.5064042,3.26179646 C13.2254155,3.53281298 12.7746115,3.53281298 12.4936229,3.26179646 C11.2691854,2.0809115 9.6526625,1.431 7.94302708,1.431 C4.36011875,1.431 1.44443542,4.28843363 1.44443542,7.80063717 C1.44443542,10.2287257 2.8211625,12.4120619 5.03720208,13.4996018 C5.39407917,13.6745575 5.53797292,14.1003982 5.36025208,14.4495664 C5.18109583,14.8007522 4.74665208,14.9397345 4.39115625,14.7662124 C1.68282292,13.4366814 0,10.7679823 0,7.80063717 C0,3.50787611 3.5631375,0.0150265487 7.943,0.0150265487 C9.80644167,0.0150265487 11.578125,0.645584071 13,1.80361062 C14.4232833,0.645584071 16.1949667,0.0150530973 18.0583542,0.0150530973 C22.4368896,0.015079646 26,3.50787611 26,7.80058407 C26,10.4948761 23.8318979,13.5410177 21.7371917,14.9293009 C21.6177263,15.0087051 21.4766882,15.0511117 21.33235,15.0510265 Z" id="Path"></path>
            <path d="M20.1742396,17.4653097 C19.5790021,17.4653097 19.0204083,17.2378142 18.6000208,16.8257522 L15.8451583,14.1259912 C15.5630313,13.8494602 15.5630313,13.4014513 15.8451583,13.1248938 C16.1272854,12.8483628 16.5843167,12.8483628 16.8664167,13.1248938 L19.6212792,15.8247345 C19.9174896,16.1150973 20.4309896,16.1143805 20.7272,15.8240177 C21.0318875,15.5260354 21.0318875,15.0393186 20.7272,14.740646 L12.8194354,7.20602655 C12.5331104,6.93363717 12.5274771,6.48560177 12.8053521,6.20490265 C13.0846354,5.92489381 13.5416667,5.91868142 13.8266104,6.1910708 L21.7414438,13.7325929 C22.6159646,14.5905664 22.6159646,15.974708 21.7484854,16.8257788 C21.3267167,17.238531 20.7681229,17.4652832 20.1742667,17.4652832 L20.1742396,17.4653097 Z" id="Path"></path>
            <path d="M18.3136958,19.8311947 C17.7438354,19.8311947 17.1739208,19.6189115 16.7394771,19.1930177 L15.3316854,17.812354 C15.0495854,17.535823 15.0495854,17.0878142 15.3316854,16.8112566 C15.6138396,16.5346991 16.0708708,16.5346991 16.3529979,16.8112566 L17.7607896,18.1919204 C18.0654771,18.4905929 18.5619688,18.4905929 18.8666563,18.1919204 C19.0148021,18.0467257 19.0965938,17.8545398 19.0965938,17.6498761 C19.0965938,17.4445487 19.0147479,17.2523628 18.8666563,17.107885 L15.1313771,13.4449646 C14.8492771,13.1684071 14.8492771,12.7203982 15.1313771,12.4438673 C15.4134771,12.1673363 15.8705625,12.1673363 16.1526896,12.4438673 L19.8879146,16.1060708 C20.308275,16.5181327 20.5410292,17.0663894 20.5410292,17.6498761 C20.5410292,18.2327257 20.3082479,18.7809558 19.8879146,19.1937345 C19.4534708,19.6189115 18.8835563,19.8311681 18.3136958,19.8311681 L18.3136958,19.8311947 Z" id="Path"></path>
            <path d="M14.6094813,21.2809912 L14.2652792,20.9422301 C13.9831792,20.6656726 13.9831792,20.2176637 14.2652792,19.9411062 C14.5474063,19.6659558 15.0044375,19.6645221 15.2865917,19.9424867 L15.6307396,20.2805841 C15.9269771,20.5695398 16.4404229,20.5702301 16.7366604,20.2798673 C17.0413479,19.9811947 17.0413479,19.4937876 16.7366604,19.1950885 L15.9946854,18.4678142 C15.7125854,18.1912301 15.7125854,17.7432212 15.9946854,17.4666903 C16.2767854,17.1901593 16.7338708,17.1901327 17.0159979,17.4666903 L17.7579458,18.1940177 C18.3410042,18.7660118 18.5321963,19.5791067 18.3315221,20.3092207 C18.2336129,20.6654443 18.0424208,21.0019145 17.7579458,21.2809912 C17.3375583,21.6930265 16.7789646,21.9204956 16.1837,21.9204956 C15.5884083,21.9204956 15.0298417,21.6930265 14.6094813,21.2809912 Z" id="Path"></path>
            <path d="M14.0777,23.9849469 C13.4824083,23.9849469 12.9238417,23.7574248 12.5034813,23.3454159 L12.1592792,23.0066549 C11.8771792,22.7300973 11.8771792,22.2820885 12.1592792,22.005531 C12.4414062,21.7303805 12.8984375,21.7289469 13.1805917,22.0069115 L13.5247396,22.3450088 C13.8209771,22.6339646 14.3344229,22.6346549 14.6306604,22.344292 C14.9353479,22.0456195 14.9353479,21.5582124 14.6306604,21.2595133 L14.3316875,20.9664425 C14.0495604,20.6899115 14.0495604,20.2419292 14.3316875,19.9653717 C14.6138146,19.6888142 15.0708729,19.6888142 15.353,19.9653717 L15.6519458,20.258469 C16.5194792,21.1095133 16.5194792,22.4943451 15.6519458,23.3454159 C15.2315583,23.7574513 14.6729646,23.9849204 14.0777,23.9849204 L14.0777,23.9849469 Z M5.96396667,16.6653451 C5.37011042,16.6653451 4.81151667,16.4385664 4.38974792,16.026531 C3.52224167,15.1747699 3.52224167,13.7906018 4.38974792,12.9395575 L6.76235625,10.6137876 C7.60730208,9.78759292 9.07150833,9.79035398 9.91079375,10.6137876 C10.3311542,11.0258496 10.5639083,11.5740796 10.5639083,12.1569292 C10.5639083,12.7397788 10.3311271,13.2880088 9.91079375,13.7007611 L7.5382125,16.0258407 C7.11787917,16.4378761 6.55928542,16.6653451 5.96399375,16.6653451 L5.96396667,16.6653451 Z M8.336575,11.390177 C8.12781667,11.390177 7.93176042,11.470354 7.78364167,11.6155752 L5.41106042,13.9406283 C5.10637292,14.2393009 5.10637292,14.7260442 5.41106042,15.0247168 C5.70724375,15.3136991 6.22071667,15.3150796 6.51695417,15.0247168 L8.8895625,12.6989469 C9.03765417,12.5537257 9.1195,12.3615398 9.1195,12.1569292 C9.1195,11.9523186 9.03765417,11.7600531 8.8895625,11.6156018 C8.74141667,11.4697168 8.54536042,11.3902035 8.336575,11.3902035 L8.336575,11.390177 Z" id="Shape" fill-rule="nonzero"></path>
            <path d="M8.09114583,18.7505841 C7.4972625,18.7505841 6.93869583,18.5237788 6.51692708,18.1117434 C5.64942083,17.2606726 5.64942083,15.876531 6.51692708,15.0247699 L8.88953542,12.699 C9.73448125,11.8728053 11.1972521,11.8749292 12.0393813,12.6983097 C12.9068875,13.5500973 12.9068875,14.9342124 12.0393813,15.7852832 L9.6653375,18.1110531 C9.24500417,18.5230885 8.68641042,18.7505841 8.09111875,18.7505841 L8.09114583,18.7505841 Z M10.4637542,13.4753894 C10.2549687,13.4753894 10.0589125,13.5556195 9.91079375,13.7007876 L7.5382125,16.0258673 C7.233525,16.3245398 7.233525,16.8112566 7.5382125,17.1099292 C7.83445,17.3989381 8.34789583,17.400292 8.64413333,17.1099292 L11.01815,14.7841858 C11.3228375,14.4855133 11.3228375,13.9987699 11.01815,13.7000973 C10.8700313,13.5555929 10.673975,13.4753894 10.4637813,13.4753894 L10.4637542,13.4753894 Z" id="Shape" fill-rule="nonzero"></path>
            <path d="M10.2182979,20.8364336 C9.62444167,20.8364336 9.06584792,20.6096283 8.64407917,20.1975929 C7.77657292,19.3458319 7.77657292,17.9610265 8.64407917,17.1099292 L11.0180958,14.7841858 C11.8574083,13.9614425 13.3216146,13.9579912 14.1665333,14.783469 C15.0340938,15.6352301 15.0340938,17.0193982 14.1665333,17.870469 L11.7925167,20.1969292 C11.3721563,20.6089646 10.8135896,20.8364336 10.2182979,20.8364336 Z M12.5923146,15.5605752 C12.3835562,15.5605752 12.1875,15.6400885 12.0394083,15.7852566 L9.66536458,18.1110531 C9.36067708,18.4097257 9.36067708,18.8971327 9.66536458,19.1958053 C9.961575,19.4847876 10.475075,19.4861416 10.7712854,19.1958053 L13.1453021,16.8693451 C13.4499896,16.5706726 13.4499896,16.0839558 13.1453021,15.7852566 C12.9971562,15.6407788 12.8010729,15.5605752 12.5923417,15.5605752 L12.5923146,15.5605752 Z" id="Shape" fill-rule="nonzero"></path>
            <path d="M12.3454771,22.9215929 C11.7515938,22.9215929 11.1930271,22.6948142 10.7712583,22.2827788 C9.90375208,21.4310177 9.90375208,20.0468496 10.7712583,19.1958053 L13.145275,16.8693451 C13.9845875,16.0459115 15.4502021,16.0438407 16.2937125,16.8686549 C17.1612458,17.7211327 17.1612458,19.1052212 16.2937125,19.9556549 L13.9211313,22.2820885 C13.4993625,22.6948407 12.9407146,22.9216195 12.3454771,22.9216195 L12.3454771,22.9215929 Z M14.7194938,17.6457345 C14.5107354,17.6457345 14.3146792,17.7252478 14.1665604,17.8704425 L11.7925438,20.1969027 C11.4878563,20.4955752 11.4878563,20.9822655 11.7925438,21.2809646 C12.0887542,21.5699469 12.6036354,21.5692832 12.8998458,21.2802743 L15.2724542,18.9545044 C15.5771417,18.6558319 15.5771417,18.169115 15.2724542,17.8704425 C15.1243625,17.7259381 14.9282521,17.6457345 14.7194937,17.6457345 Z M9.6315375,10.0572478 C9.03765417,10.0572478 8.47906042,9.83046903 8.05731875,9.41843363 C7.18978542,8.56664602 7.18978542,7.18253097 8.05731875,6.33143363 L12.5062979,2.24062832 C12.7954667,1.97442478 13.2538792,1.98687611 13.5261479,2.27243363 C13.7997708,2.5579646 13.7856875,3.00597345 13.4937021,3.27358407 L9.06162292,7.34846018 C8.7738625,7.63120354 8.7738625,8.11792035 9.07855,8.41661947 C9.3747875,8.70560177 9.88823333,8.7069823 10.1844708,8.41661947 L12.8518813,6.16207965 C13.1551604,5.9090177 13.6107563,5.94079646 13.8703229,6.23673451 C14.1298896,6.53264602 14.0960354,6.97993805 13.7941375,7.2350708 L11.1662146,9.45371681 C10.7853417,9.82975221 10.226775,10.0572212 9.6315375,10.0572212 L9.6315375,10.0572478 Z" id="Shape" fill-rule="nonzero"></path>
        </g>
    </g>
</svg>