<?xml version="1.0" standalone="no"?>
<!DOCTYPE svg PUBLIC "-//W3C//DTD SVG 1.1//EN" "http://www.w3.org/Graphics/SVG/1.1/DTD/svg11.dtd">
<svg class="icon" width="200px" height="200.00px" viewBox="0 0 1024 1024" version="1.1" xmlns="http://www.w3.org/2000/svg">
<defs><style type="text/css">
</style>
</defs>
<path d="M1169.921898 311.544256a322.125439 322.125439 0 0 0-34.949155-118.885826 365.942701 365.942701 0 0 0-95.121399-114.533573A347.488398 347.488398 0 0 0 909.554746 8.759806a247.934819 247.934819 0 0 0-107.732318-5.101565 234.706966 234.706966 0 0 0-99.468657 41.581815l-108.903742 86.751585a989.757345 989.757345 0 0 0-126.040506-100.927318A331.980139 331.980139 0 0 0 318.925877 0.823344a299.599874 299.599874 0 0 0-120.957673 27.597157 320.284629 320.284629 0 0 0-119.412842 98.84423C14.088313 211.938225-10.87876 301.904358 4.317285 394.700392A408.265086 408.265086 0 0 0 79.501992 567.070853c48.930067 67.85269 390.719948 395.579235 405.252853 409.565142l0.926649 0.755556a210.519178 210.519178 0 0 0 70.101874 37.611711 175.184127 175.184127 0 0 0 50.237617 7.746636 157.773865 157.773865 0 0 0 104.762545-41.012338c96.596295-83.542032 391.910105-435.269038 404.462328-450.201575a254.106651 254.106651 0 0 0 41.388243-85.424054 360.747472 360.747472 0 0 0 13.347742-134.568924h-0.059945zM119.587681 538.152409c-64.769272-89.776307-117.631977-228.87732-1.737154-381.022603 46.476071-65.886995 121.612072-105.630498 202.231788-106.976762a291.891953 291.891953 0 0 1 123.490348 24.006704 1006.726762 1006.726762 0 0 1 122.416333 99.409961 912.649404 912.649404 0 0 1 135.09594 145.155452c13.025539 23.112526 9.0929 52.065937-9.619916 70.872417-13.191636 19.575773-37.485577 28.430142-60.174741 21.927364-64.584441-28.162888-163.27756-135.13965-164.282887-136.27111a24.721048 24.721048 0 0 0-23.693242-7.654222 24.732288 24.732288 0 0 0-18.333165 16.849527 24.717302 24.717302 0 0 0 5.624835 24.255227c0.795519 0.756805 4.916735 5.293889 11.551892 12.098889a24.899634 24.899634 0 0 0-23.513407 6.424101L160.487623 585.214192a560.691361 560.691361 0 0 1-40.861227-47.061783h-0.038715z m989.608732-106.026385a203.699191 203.699191 0 0 1-31.88447 67.657869c-3.044704 3.595448-305.257179 363.641065-398.793783 444.71911a107.838471 107.838471 0 0 1-106.689526 23.625804 160.857283 160.857283 0 0 1-53.432183-27.781987c-6.781273-6.42535-13.928459-13.421425-21.391606-20.602331l260.273488-260.062432c9.361403-9.698594 9.230274-25.113188-0.302222-34.65068-9.527501-9.532496-24.943344-9.673617-34.645685-0.312213L462.075671 884.782845c-0.181084 0.287236-0.414619 0.542002-0.678127 0.755556a10099.712827 10099.712827 0 0 1-61.32993-59.535328l0.584463-0.570726 260.269742-260.063681c9.60493-9.649888 9.566215-25.255558-0.082425-34.860487-9.649888-9.601183-25.260553-9.566215-34.860487 0.087419L365.724152 790.659279c-0.347181 0.263508-0.649404 0.580717-0.887935 0.941636a54989.92717 54989.92717 0 0 1-72.594586-71.627974l259.62908-259.49795a24.72979 24.72979 0 0 0 6.756296-24.045419 24.739781 24.739781 0 0 0-17.653788-17.665028 24.731039 24.731039 0 0 0-24.050415 6.746305L257.424854 685.005053c-22.679173-22.865253-43.958383-44.412965-62.823558-64.067417l259.024635-258.742394a24.572435 24.572435 0 0 0 6.561474-23.060073c36.738762 36.475254 100.678796 95.444852 151.389727 117.558295 42.67581 15.493272 90.468172 1.215134 117.65071-35.152719 33.163296-35.270111 38.622033-88.376343 13.327761-129.657185a837.328572 837.328572 0 0 0-112.40178-126.060487l103.064105-81.838597 0.224794-0.191074a186.644852 186.644852 0 0 1 76.906875-31.562266 204.712011 204.712011 0 0 1 86.751586 4.161178 300.967368 300.967368 0 0 1 111.50885 59.911233 288.091692 288.091692 0 0 1 112.133277 199.962622 310.934466 310.934466 0 0 1-11.526915 115.859855h-0.019982z" p-id="996">
</path></svg>