<?xml version="1.0" encoding="UTF-8"?>
<svg width="28px" height="25px" viewBox="0 0 28 25" version="1.1" xmlns="http://www.w3.org/2000/svg" xmlns:xlink="http://www.w3.org/1999/xlink">
    <!-- Generator: Sketch 52.2 (67145) - http://www.bohemiancoding.com/sketch -->
    <title>管车定制</title>
    <desc>Created with Sketch.</desc>
    <g id="Page-1" stroke="none" stroke-width="1" fill="none" fill-rule="evenodd">
        <g id="管车定制" transform="translate(1.000000, 1.000000)" fill="#000000" stroke="#000000" stroke-width="0.5">
            <path d="M23.6644305,0.0161863203 C21.2970456,0.0161863203 10.6832417,0.045156668 9.44040035,0.045156668 C8.11095972,0.045156668 7.13662031,0.675359395 7.13662031,2.37021627 C7.13662031,4.76755886 7.13662031,4.79138471 7.13662031,4.79138471 C7.13662031,4.79138471 1.63700705,7.65160348 1.00477769,7.98937448 C0.372548338,8.32714548 0.000532568359,8.49169191 0.000532568359,9.34911057 C0.000532568359,10.3364412 0.000532568359,18.1571387 0.000532568359,18.581509 C0.000532568359,19.5515093 0.435321783,20.0560093 1.46596501,20.0560093 C1.77060846,20.0560093 2.82770175,20.0559313 4.22490446,20.0558274 C4.50894387,21.7325226 5.96801062,23.0094529 7.72556302,23.0094529 C9.48329728,23.0094529 10.9424939,21.7322108 11.2262995,20.0552298 C13.0463395,20.0550739 14.4923631,20.054944 14.8515436,20.054918 C15.1352193,21.7320549 16.5944939,23.0094529 18.3523321,23.0094529 C20.3134564,23.0094529 21.9032665,21.4196427 21.9032665,19.4585184 C21.9032665,17.4973941 20.3134564,15.9075839 18.3523321,15.9075839 C16.5783068,15.9075839 15.1082496,17.2085479 14.8438528,18.9084194 C14.4943638,18.9084194 13.0463655,18.9084194 11.2339903,18.9084194 C10.9696195,17.2085219 9.49953626,15.9075839 7.72551104,15.9075839 C5.95148582,15.9075839 4.48142853,17.2085479 4.21703179,18.9084194 C2.85438565,18.9084194 1.89467434,18.9084194 1.80368404,18.9084194 C1.38580934,18.9084194 1.14653759,18.6854126 1.14653759,18.3129811 C1.14653759,18.3129811 1.14653759,9.66464065 1.14653759,9.53743088 C1.14653759,9.25378119 1.2991841,9.08923476 1.80150153,8.82941092 C1.80150153,8.82941092 7.38911712,6.00964673 7.6915261,5.86274231 C7.99393507,5.71583789 8.28301508,5.61515617 8.28301508,5.09550849 C8.28301508,5.09550849 8.28410634,2.78416757 8.28410634,2.2710155 C8.28410634,1.72104639 8.7626239,1.18840752 9.43598337,1.18840752 L23.7068077,1.19165531 C24.4213233,1.19165531 24.8500326,1.72104639 24.8500326,2.37819283 C24.8500326,2.37819283 24.8532804,18.0834527 24.8532804,18.2815683 C24.8532804,18.479684 24.9328645,18.8255875 24.3060135,18.8255875 C23.766879,18.8255875 23.6226768,19.1407019 23.6226768,19.4541014 C23.6226768,19.7058187 23.8575316,20.0548661 24.2992321,20.0548661 C24.7409326,20.0548661 24.9950923,20.0559573 24.9950923,20.0559573 C24.9950923,20.0559573 25.9993634,19.932541 25.9993634,18.7286992 C25.9993634,17.5248574 25.9993634,3.50736125 25.9993634,2.35114516 C25.9994673,1.04560836 25.0709868,0.0161863203 23.6644305,0.0161863203 Z M18.352358,17.0811822 C19.6653518,17.0811822 20.7297462,18.1455766 20.7297462,19.4585704 C20.7297462,20.7715642 19.6653518,21.8359585 18.352358,21.8359585 C17.0393643,21.8359585 15.9749699,20.7715642 15.9749699,19.4585704 C15.9749699,18.1455766 17.0393643,17.0811822 18.352358,17.0811822 Z M7.72556302,17.0811822 C9.03855679,17.0811822 10.1029511,18.1455766 10.1029511,19.4585704 C10.1029511,20.7715642 9.03855679,21.8359585 7.72556302,21.8359585 C6.41256924,21.8359585 5.34817489,20.7715642 5.34817489,19.4585704 C5.34817489,18.1455766 6.41256924,17.0811822 7.72556302,17.0811822 Z" id="Shape" fill-rule="nonzero"></path>
            <path d="M2.97782799,12.4031579 C2.97782799,12.8448585 3.41222746,13.0031951 3.6095377,13.0031951 C4.10179994,13.0031951 7.60212073,13.0031951 7.76591367,13.0031951 C8.04278196,13.0031951 8.283119,12.7766547 8.283119,12.4323881 C8.283119,12.1043605 8.283119,8.37913621 8.283119,8.2557199 C8.283119,8.07168667 8.14995929,7.69060304 7.71475435,7.69060304 C7.30797415,7.69060304 7.13500943,8.05219987 7.13500943,8.26465783 C7.13500943,8.41080873 7.13542515,11.8559169 7.13542515,11.8559169 C7.13542515,11.8559169 3.86286593,11.8559169 3.65986557,11.8559169 C3.45686522,11.8559169 2.97782799,11.984192 2.97782799,12.4031579 Z" id="Path"></path>
        </g>
    </g>
</svg>