<?xml version="1.0" standalone="no"?><!DOCTYPE svg PUBLIC "-//W3C//DTD SVG 1.1//EN" "http://www.w3.org/Graphics/SVG/1.1/DTD/svg11.dtd"><svg t="1573195200528" class="icon" viewBox="0 0 1024 1024" version="1.1" xmlns="http://www.w3.org/2000/svg" p-id="3405" xmlns:xlink="http://www.w3.org/1999/xlink" width="200" height="200"><defs><style type="text/css"></style></defs><path d="M678.912 121.344H245.76c-39.936 0-66.56 26.112-66.56 66.048v658.432c0 39.424 26.624 66.048 66.56 66.048h532.48c39.936 0 66.56-26.112 66.56-66.048V286.208l-165.888-164.864zM800.256 819.2c0 25.6-19.456 51.2-51.2 51.2H268.8c-25.6 0-45.056-19.456-45.056-51.2V204.8c0-25.6 19.456-51.2 45.056-51.2H640v102.4c0 38.4 25.6 64 64 64h96.256V819.2zM712.704 292.864c-23.552 0-47.104-22.528-47.104-51.712V157.184l139.776 132.608-92.672 3.072z m-27.648 135.68H339.456c-6.656 0-19.456-7.68-19.456-14.336 0-14.336 6.656-22.016 19.456-22.016h345.6c12.8 0 19.456 7.68 19.456 22.016-6.656 7.68-13.312 14.336-19.456 14.336z m-179.2 151.04H339.456c-12.8 0-19.456-14.336-19.456-22.016 0-14.336 6.656-22.016 19.456-22.016h166.4c6.656 0 12.8 7.68 12.8 22.016 0 7.68-6.656 22.016-12.8 22.016z m0 150.016H339.456c-12.8 0-19.456-7.68-19.456-22.016s6.656-22.016 19.456-22.016h166.4c12.8 0 19.456 7.68 19.456 22.016-7.168 14.336-13.312 22.016-19.456 22.016z m240.128-90.624c0-49.152-40.96-81.92-81.92-81.92-49.152 0-81.92 40.96-81.92 81.92 0 25.088 8.704 40.96 25.088 57.344v81.92c0 8.704 8.704 16.384 16.384 8.704l40.96-49.152 40.448 49.152c8.704 8.704 16.384 0 16.384-8.704v-82.432c8.192-8.704 24.576-32.768 24.576-56.832z m-23.552-0.512c0 31.744-25.6 57.344-57.344 57.344-31.744 0-57.344-25.6-57.344-57.344 0-31.744 25.6-57.344 57.344-57.344 31.744-0.512 57.344 25.6 57.344 57.344z" p-id="3406"></path></svg>