<?xml version="1.0" standalone="no"?><!DOCTYPE svg PUBLIC "-//W3C//DTD SVG 1.1//EN" "http://www.w3.org/Graphics/SVG/1.1/DTD/svg11.dtd"><svg t="1566178706859" class="icon" viewBox="0 0 1024 1024" version="1.1" xmlns="http://www.w3.org/2000/svg" p-id="1771" xmlns:xlink="http://www.w3.org/1999/xlink" width="200" height="200"><defs><style type="text/css"></style></defs><path d="M286.479602 314.660697l209.773134 0c12.412935 0 22.472637-10.061692 22.472637-22.474627s-10.059701-22.477612-22.472637-22.477612L286.479602 269.708458c-12.414925 0-22.477612 10.064677-22.477612 22.477612S274.066667 314.660697 286.479602 314.660697zM264.00199 516.944279c0 12.412935 10.061692 22.477612 22.477612 22.477612l449.518408 0c12.40796 0 22.472637-10.064677 22.472637-22.477612s-10.064677-22.474627-22.472637-22.474627L286.479602 494.469652C274.066667 494.468657 264.00199 504.531343 264.00199 516.944279zM698.535323 14.985075l-44.955224 0L653.5801 0l0 0L653.5801 14.985075 159.116418 14.985075c-33.101493 0-59.935323 26.832836-59.935323 59.935323l0 884.047761c0 33.099502 26.832836 59.935323 59.935323 59.935323l719.224876 0c33.099502 0 59.935323-26.835821 59.935323-59.935323L938.276617 269.710448l0 0L698.535323 14.985075zM698.535323 74.920398l179.80597 194.78806L728.505473 269.708458c-16.557214 0-29.970149-13.414925-29.970149-29.965174L698.535323 74.920398 698.535323 74.920398zM878.341294 929.002985c0 16.547264-13.41791 29.965174-29.965174 29.965174L189.084577 958.968159c-16.552239 0-29.967164-13.41791-29.967164-29.965174L159.117413 104.887562c0-16.549254 13.41791-29.967164 29.967164-29.967164l464.496517 0 0 179.80597c0 33.101493 26.835821 59.935323 59.940299 59.935323l164.820896 0L878.342289 929.002985 878.341294 929.002985zM735.99801 734.206965 286.479602 734.206965c-12.414925 0-22.477612 10.064677-22.477612 22.477612 0 12.41791 10.061692 22.477612 22.477612 22.477612l449.518408 0c12.40796 0 22.472637-10.059701 22.472637-22.477612C758.470647 744.271642 748.40597 734.206965 735.99801 734.206965z" p-id="1772"></path></svg>