<?xml version="1.0" standalone="no"?><!DOCTYPE svg PUBLIC "-//W3C//DTD SVG 1.1//EN" "http://www.w3.org/Graphics/SVG/1.1/DTD/svg11.dtd"><svg class="icon" width="200px" height="200.00px" viewBox="0 0 1024 1024" version="1.1" xmlns="http://www.w3.org/2000/svg"><path d="M908.8 390.4L704 182.4c-6.4-6.4-9.6-9.6-19.2-9.6s-12.8 6.4-19.2 12.8l-73.6 73.6 243.2 246.4 73.6-73.6c6.4-6.4 9.6-16 9.6-25.6s-3.2-9.6-9.6-16zM416 182.4c-12.8-12.8-25.6-16-38.4-3.2l-256 259.2c-12.8 12.8-16 28.8-3.2 41.6l358.4 364.8c6.4 6.4 9.6 9.6 19.2 9.6s12.8-6.4 19.2-12.8l22.4-22.4-176-176 41.6-41.6 176 176 35.2-38.4-176-176 41.6-44.8 176 176 38.4-35.2-176-176 41.6-41.6 176 176 35.2-35.2c6.4-6.4 12.8-9.6 12.8-19.2s-3.2-12.8-9.6-19.2L416 182.4z m124.8 726.4c-12.8 12.8-32 19.2-48 19.2-19.2 0-35.2-6.4-48-19.2L54.4 512c-25.6-28.8-25.6-70.4 0-99.2l291.2-297.6c12.8-12.8 32-19.2 48-19.2 19.2 0 35.2 6.4 48 19.2l92.8 96 92.8-96c12.8-12.8 32-19.2 48-19.2 19.2 0 35.2 6.4 48 19.2l243.2 246.4c25.6 28.8 25.6 70.4 0 99.2l-425.6 448z" /></svg>