<?xml version="1.0" standalone="no"?><!DOCTYPE svg PUBLIC "-//W3C//DTD SVG 1.1//EN" "http://www.w3.org/Graphics/SVG/1.1/DTD/svg11.dtd"><svg class="icon" width="200px" height="200.00px" viewBox="0 0 1024 1024" version="1.1" xmlns="http://www.w3.org/2000/svg"><path d="M964.312 185.182c-16.95 0-30.586 13.717-30.586 30.666v729.897L519.734 771.422a30.99 30.99 0 0 0-24.037 0.054L90.408 946.607V118.946a56.32 56.32 0 0 1 56.293-56.24h705.86c17.004 0 30.666-13.716 30.666-30.666S869.565 1.374 852.56 1.374H146.728A117.76 117.76 0 0 0 29.103 118.92v874.307a30.72 30.72 0 0 0 42.846 28.187L508.04 832.97l444.389 187.446c9.377 3.88 20.426 3.018 28.914-2.614a31.259 31.259 0 0 0 13.582-25.762V215.821a30.585 30.585 0 0 0-30.612-30.639z"  /><path d="M774.845 376.158a30.774 30.774 0 0 0-29.265-21.234H589.393L541.13 206.363A30.45 30.45 0 0 0 512 185.155c-13.258 0-25.034 8.57-29.184 21.154l-48.263 148.615H278.366c-13.312 0-25.034 8.488-29.184 21.234-4.096 12.585 0.458 26.436 11.183 34.277l126.33 91.783-48.21 148.56a30.612 30.612 0 0 0 47.186 34.197L512 593.192l126.248 91.702c5.498 4.015 11.776 5.902 18.136 5.902a30.585 30.585 0 0 0 29.184-40.098l-48.344-148.48 126.384-91.783c10.779-7.841 15.198-21.692 11.237-34.277z m-191.65 89.439a30.99 30.99 0 0 0-11.183 34.33l25.977 79.926-68.015-49.394a30.531 30.531 0 0 0-35.948 0l-68.096 49.475 25.977-79.926a30.64 30.64 0 0 0-11.048-34.33l-68.07-49.395h84.077c13.312 0 25.034-8.488 29.13-21.235l26.03-79.925 25.978 79.925c4.07 12.666 15.926 21.235 29.265 21.235h84.022l-68.096 49.314z"  /></svg>