<?xml version="1.0" standalone="no"?><!DOCTYPE svg PUBLIC "-//W3C//DTD SVG 1.1//EN" "http://www.w3.org/Graphics/SVG/1.1/DTD/svg11.dtd"><svg t="1584695024933" class="icon" viewBox="0 0 1024 1024" version="1.1" xmlns="http://www.w3.org/2000/svg" p-id="2673" xmlns:xlink="http://www.w3.org/1999/xlink" width="200" height="200"><defs><style type="text/css"></style></defs><path d="M951.825067 0H65.1776A64.631467 64.631467 0 0 0 0.6144 64.5632v659.968a64.631467 64.631467 0 0 0 64.5632 64.546133h407.466667v153.770667c0 2.235733 0.2048 4.488533 0.6144 6.690133H149.845333a35.874133 35.874133 0 1 0 0 71.7312H867.157333a35.874133 35.874133 0 0 0 0-71.7312H543.744c0.4096-2.218667 0.631467-4.437333 0.631467-6.690133v-153.770667H951.808a64.631467 64.631467 0 0 0 64.5632-64.546133V64.5632A64.631467 64.631467 0 0 0 951.808 0z m-7.168 717.346133H72.362667V71.7312h872.277333v645.632z" p-id="2674"></path><path d="M397.056 376.234667l186.402133 109.482666c11.264 6.621867 25.224533 6.587733 36.4544-0.085333l203.093334-120.507733-36.590934-61.696-184.900266 109.7728-186.897067-109.841067a35.874133 35.874133 0 0 0-37.205333 0.546133L193.211733 419.328l38.109867 60.7744 165.717333-103.8848z" p-id="2675"></path></svg>