<svg t="1566282315888" class="icon" viewBox="0 0 1024 1024" version="1.1" xmlns="http://www.w3.org/2000/svg" p-id="7841" width="128" height="128"><path d="M483.328 563.712V391.168h173.056c0-83.456-70.656-147.456-153.6-147.456s-153.6 70.656-153.6 153.6c6.144 83.456 51.2 166.4 134.144 166.4z" p-id="7842" fill="#515151"></path><path d="M529.92 610.304c89.6 0 172.544-89.6 172.544-172.544h-172.544v172.544z" p-id="7843" fill="#515151"></path><path d="M822.272 94.72h-56.32c-15.36 0-33.792 9.216-33.792 24.576s17.92 30.72 33.792 30.72h56.32c33.792 0 56.32 22.528 56.32 55.296v640c0 33.28-22.528 55.296-56.32 55.296H215.552c-33.792 0-70.656-22.528-70.656-55.296V205.824c0-33.28 22.528-55.296 56.32-55.296h70.656c15.36 0 21.504-15.36 21.504-30.72s-6.144-24.576-21.504-24.576H201.216c-79.36 0-112.64 48.64-112.64 112.128V839.68c0 68.608 41.984 117.248 118.784 117.248h609.28c76.8 0 118.784-39.936 118.784-117.248V207.36c-0.512-64-40.448-112.64-113.152-112.64z" p-id="7844" fill="#515151"></path><path d="M414.208 164.352h196.608c22.528 0 41.984-22.528 41.984-48.64s-18.944-48.64-43.008-48.64H414.208c-24.064 0-43.008 22.528-43.008 48.64s18.944 48.64 43.008 48.64zM239.616 670.208h238.08v56.32H239.616zM239.616 757.248h238.08v56.32H239.616zM546.816 670.208h238.08v56.32h-238.08zM546.816 757.248h238.08v56.32h-238.08z" p-id="7845" fill="#515151"></path></svg>