<?xml version="1.0" standalone="no"?><!DOCTYPE svg PUBLIC "-//W3C//DTD SVG 1.1//EN" "http://www.w3.org/Graphics/SVG/1.1/DTD/svg11.dtd"><svg t="1548235486984" class="icon" style="" viewBox="0 0 1024 1024" version="1.1" xmlns="http://www.w3.org/2000/svg" p-id="6967" xmlns:xlink="http://www.w3.org/1999/xlink" width="200" height="200"><defs><style type="text/css"></style></defs><path d="M756.155491 819.752573c31.005496 0 56.178275-25.172779 56.178275-56.178275 0-31.005496-25.172779-56.178275-56.178275-56.178275-31.005496 0-56.178275 25.172779-56.178275 56.178275 0 31.005496 25.172779 56.178275 56.178275 56.178275z" p-id="6968"></path><path d="M900.745478 636.380134V510.720895C921.108824 493.632058 933.2859 466.515039 933.2859 438.170081v-82.27201c0-50.038573-36.633557-90.765264-81.65804-90.765264h-37.349855c25.479764-22.921555 40.82902-45.638453 46.968722-69.378635 9.925852-38.373139-5.62806-74.495053-42.875587-99.053862-23.84251-15.758569-51.675827-23.740182-82.88598-23.740182-19.033077 0-39.601079 2.967523-61.090037 8.902568-35.712601 9.721195-74.802039 27.62866-116.1427 53.108424-20.158689 12.381733-40.112721 26.196063-59.657439 40.931348l-0.716299 0.511642c-3.172179-3.069851-6.242031-6.139702-9.41421-9.107225-61.397022-57.713201-119.92885-90.765264-173.958229-98.235235-7.879285-1.125612-15.758569-1.637254-23.433197-1.637254-40.726691 0-77.462576 15.144599-109.286699 45.024483l-0.511642 0.409313-3.376837 3.78615-0.409313 0.511642c-1.22794 1.637254-2.558209 3.376836-3.683821 5.01409-15.656241 22.307585-23.023883 46.252423-22.102928 71.015889 0.920955 23.84251 9.721195 47.889677 25.991406 71.834516h-20.977316c-45.024483 0-81.658039 40.726691-81.65804 90.765264v82.27201c0 28.344959 12.177076 55.461977 32.540422 72.550814v314.352753c0 30.493854 10.539822 59.248126 29.572899 80.839412 19.544719 22.205256 45.84311 34.484661 73.881083 34.484661h467.538324c23.637854 10.335165 49.833916 16.167882 77.257919 16.167883 106.523833 0 192.786649-86.365144 192.786649-192.78665 0.102328-48.810633-18.009793-93.323474-47.889677-127.296492z m-240.676326 61.397022l-9.925852-10.02818c-1.637254-1.637254-2.660538-3.990806-2.660538-6.549016 0-2.558209 1.023284-4.809433 2.660538-6.549016l16.884181-16.884181c1.637254-1.637254 3.990806-2.660538 6.549015-2.660537 2.558209 0 4.809433 1.023284 6.549016 2.660537l10.02818 9.925852c4.093135 4.093135 11.665434 5.218747 16.781853 2.455881l17.702808-7.265314c5.525732-1.739582 10.130509-7.879285 10.130509-13.712002V635.152193c0-2.353553 0.920955-4.707105 2.660537-6.549015 1.841911-1.841911 4.195463-2.660538 6.549016-2.660538h23.944839c2.353553 0 4.707105 0.920955 6.549015 2.660538 1.841911 1.841911 2.660538 4.195463 2.660538 6.549015v14.121316c0 5.832717 4.604777 11.972419 10.130509 13.712001l17.702808 7.265314c5.116419 2.762866 12.688718 1.637254 16.781852-2.45588l10.028181-10.028181c1.637254-1.637254 3.990806-2.660538 6.549015-2.660537 2.558209 0 4.809433 1.023284 6.549016 2.660537l16.98651 16.884181c1.637254 1.637254 2.660538 3.990806 2.660537 6.549016 0 2.558209-1.023284 4.809433-2.660537 6.549016l-10.028181 9.925852c-4.093135 4.093135-5.218747 11.665434-2.455881 16.781852l7.265315 17.702808c1.739582 5.525732 7.879285 10.130509 13.712001 10.130509h14.018987c2.353553 0 4.707105 0.920955 6.549016 2.660538 1.841911 1.841911 2.660538 4.195463 2.660537 6.549015v23.944839c0 2.353553-0.920955 4.707105-2.660537 6.549016-1.841911 1.841911-4.195463 2.660538-6.549016 2.660537h-14.018987c-5.832717 0-11.972419 4.502448-13.712001 10.130509l-7.265315 17.702808c-2.762866 5.116419-1.637254 12.688718 2.455881 16.781853l10.028181 9.925852c1.637254 1.637254 2.660538 3.990806 2.660537 6.549015 0 2.558209-1.023284 4.809433-2.660537 6.549016l-16.98651 16.884181c-1.637254 1.637254-3.990806 2.660538-6.549016 2.660538-2.558209 0-4.809433-1.023284-6.549015-2.762866l-9.925852-9.925852c-4.093135-4.093135-11.665434-5.218747-16.781853-2.455881l-17.702808 7.265314c-5.525732 1.739582-10.130509 7.879285-10.130509 13.712002v14.018986c0 2.353553-0.920955 4.707105-2.660537 6.549016-1.841911 1.841911-4.195463 2.660538-6.549016 2.660538h-23.944839c-2.353553 0-4.707105-0.920955-6.549015-2.660538-1.841911-1.841911-2.660538-4.195463-2.660538-6.549016V877.670431c0-5.832717-4.502448-11.972419-10.130508-13.712002l-17.805137-7.265314c-5.116419-2.762866-12.688718-1.637254-16.781853 2.455881l-10.02818 9.925852c-1.637254 1.637254-3.990806 2.660538-6.549016 2.660537-2.558209 0-4.809433-1.023284-6.549015-2.660537l-16.98651-16.884181c-1.637254-1.637254-2.660538-3.990806-2.660537-6.549016 0-2.558209 1.023284-4.809433 2.660537-6.549016l10.028181-9.925852c4.093135-4.093135 5.218747-11.665434 2.45588-16.781852l-7.265314-17.702808c-1.739582-5.525732-7.879285-10.130509-13.712001-10.130509h-14.121315c-2.353553 0-4.707105-0.920955-6.549016-2.660538-1.841911-1.841911-2.660538-4.195463-2.660538-6.549015v-23.944839c0-2.353553 0.920955-4.707105 2.660538-6.549016 1.841911-1.841911 4.195463-2.660538 6.549016-2.660537h14.121315c5.832717 0 11.972419-4.502448 13.712001-10.130509l7.265314-17.702808c2.865194-4.911762 1.739582-12.484061-2.45588-16.577196z m-63.750575-491.176177c35.405616-21.795943 68.048366-36.838213 97.007295-44.717497 15.349256-4.195463 29.470571-6.344359 42.05696-6.344359 16.986509 0 31.41481 3.888478 42.977915 11.563105 5.62806 3.683821 7.981613 6.037374 9.004897 7.162986-2.865194 8.595583-16.986509 25.991406-48.196662 47.992006-12.58639 8.80024-26.605376 17.60048-41.852304 26.093734-10.539822 5.832717-16.884181 9.004897-18.623763 9.823524-3.683821 1.739582-7.060658 4.093135-10.02818 6.958329H575.136604c-0.511642-0.716299-1.023284-1.534926-1.534925-2.251224-1.534926-2.148896-3.888478-5.321075-6.549016-8.697912-4.502448-5.832717-9.41421-11.870091-14.4283-18.112121 14.4283-10.539822 29.061257-20.465674 43.694214-29.470571z m-361.62846-34.075347c17.088838-15.144599 35.610273-22.512241 56.48526-22.512241 4.40012 0 9.004897 0.306985 13.609673 1.023283 38.168482 5.321075 84.318577 32.540422 133.436195 78.588189 11.767763 11.051464 23.433197 22.921555 34.893974 35.507944H290.766064c-1.944239-1.22794-5.321075-3.581493-9.618867-6.856001-8.697911-6.549016-16.679524-13.507345-23.740182-20.772659-39.601079-40.010393-27.526332-58.122514-22.716898-64.978515z m-82.988308 183.372439c0-5.321075 3.069851-8.288598 5.116418-8.288598h694.809633c2.046567 0 5.116419 3.274508 5.116419 8.288598v82.067353h-705.04247v-82.067353z m59.452783 502.022984c-14.837614 0-26.912361-14.735285-26.912362-32.847407V528.935345h639.961627v54.438693c-21.181973-8.083941-44.205856-12.484061-68.253023-12.484061-106.523833 0-192.786649 86.365144-192.786649 192.786649 0 34.177676 8.902568 66.308784 24.558809 94.142101h-376.568402z" p-id="6969"></path></svg>