<?xml version="1.0" standalone="no"?><!DOCTYPE svg PUBLIC "-//W3C//DTD SVG 1.1//EN" "http://www.w3.org/Graphics/SVG/1.1/DTD/svg11.dtd"><svg class="icon" width="200px" height="200.00px" viewBox="0 0 1024 1024" version="1.1" xmlns="http://www.w3.org/2000/svg"><path d="M998.4 121.6l-96-96C883.2 6.4 860.8 0 838.4 0s-44.8 9.6-64 25.6l-416 416-99.2 291.2S243.2 768 272 768c6.4 0 12.8 0 19.2-3.2l291.2-99.2 416-416c35.2-35.2 35.2-92.8 0-128zM345.6 678.4l57.6-169.6 112 112-169.6 57.6z m224-92.8L435.2 451.2 736 150.4l134.4 134.4-300.8 300.8z m384-380.8L918.4 240 784 105.6l35.2-35.2c6.4-6.4 16-6.4 19.2-6.4s12.8 0 19.2 6.4l96 96c6.4 6.4 6.4 16 6.4 19.2 0 3.2 0 12.8-6.4 19.2z"  /><path d="M928 480c-19.2 0-32 12.8-32 32v352c0 54.4-41.6 96-96 96H160c-54.4 0-96-41.6-96-96V224c0-54.4 41.6-96 96-96h320c19.2 0 32-12.8 32-32s-12.8-32-32-32H160C70.4 64 0 134.4 0 224v640c0 89.6 70.4 160 160 160h640c89.6 0 160-70.4 160-160V512c0-19.2-12.8-32-32-32z"  /></svg>