<?xml version="1.0" standalone="no"?><!DOCTYPE svg PUBLIC "-//W3C//DTD SVG 1.1//EN" "http://www.w3.org/Graphics/SVG/1.1/DTD/svg11.dtd"><svg t="1548231020184" class="icon" style="" viewBox="0 0 1024 1024" version="1.1" xmlns="http://www.w3.org/2000/svg" p-id="3950" xmlns:xlink="http://www.w3.org/1999/xlink" width="200" height="200"><defs><style type="text/css"></style></defs><path d="M860.271709 1023.776582H153.115927c-51.6096 0.316509-78.866618-42.654255-78.550109-94.263855V223.045818C74.882327 171.4176 117.220073 129.079855 168.866909 128.763345h62.836364s6.441891-0.260655 13.5168 0c14.205673 0.521309 17.780364 9.793164 17.947927 17.147346 0.316509 16.048873 0 8.005818 0 24.966982 0 1.992145-0.763345 19.679418-20.703418 20.163491-12.660364 0.316509-71.773091 1.191564-71.773091 1.191563-12.288 0.148945-31.837091 23.086545-32.023273 31.986037v704.009309c21.131636 32.395636 4.486982 32.1536 32.023273 32.004654H842.658909c27.517673 0.148945 32.172218-20.740655 32.023273-32.023272V224.237382c0.837818-10.519273-17.743127-32.991418-45.2608-33.1776 0 0-45.726255 0.763345-58.349382 0-16.532945-0.986764-20.759273-7.484509-20.796509-19.176727-0.055855-16.402618-0.595782-7.968582 0-24.27811 0.372364-9.216-2.420364-18.301673 20.964073-18.804363 5.771636-0.148945 10.463418 0 10.463418 0h62.854982c51.6096 0.297891 93.947345 42.635636 94.263854 94.263854v706.466909c0.316509 51.6096-26.977745 94.580364-78.568727 94.263855z m-105.509236-545.885091l-256.744728 255.813818a39.563636 39.563636 0 0 1-55.79869 0l-156.281019-155.722473a39.209891 39.209891 0 0 1 0-55.612509 39.563636 39.563636 0 0 1 55.798691 0l128.390982 127.906909L698.926545 422.260364a39.563636 39.563636 0 0 1 55.81731 0 39.209891 39.209891 0 0 1 0 55.612509z m-72.0896-285.658764H330.640291a32.023273 32.023273 0 0 1 0-64.009309h33.5872c8.061673-71.903418 68.365964-128 142.410473-128s134.330182 56.096582 142.391854 128h33.605818a32.023273 32.023273 0 0 1 0.037237 64.009309zM506.656582 64.232727a48.034909 48.034909 0 0 0 0 95.995346 48.034909 48.034909 0 0 0 0-95.995346z" fill="#515152" p-id="3951"></path></svg>