<?xml version="1.0" encoding="UTF-8"?>
<svg width="26px" height="24px" viewBox="0 0 26 24" version="1.1" xmlns="http://www.w3.org/2000/svg" xmlns:xlink="http://www.w3.org/1999/xlink">
    <!-- Generator: Sketch 52.2 (67145) - http://www.bohemiancoding.com/sketch -->
    <title>金融定制</title>
    <desc>Created with Sketch.</desc>
    <g id="Page-1" stroke="none" stroke-width="1" fill="none" fill-rule="evenodd">
        <g id="金融定制" fill="#000000">
            <path d="M24.7001723,7.29665474 L15.2438383,0.739885974 C13.5452557,-0.606423773 11.779629,0.176017025 11.0440804,0.805380042 L0.990936683,7.69388199 C0.55108015,7.98608625 -0.158503357,8.58522119 0.032165724,9.31340659 C0.163153838,9.81371917 0.627037754,10.0950723 1.41219136,10.1501028 C1.428468,10.151653 1.44435706,10.1520405 1.4606337,10.1520405 L3.80563092,10.1551408 L3.80563092,20.5768339 C3.80563092,22.0525817 4.94615757,23.2524017 6.34827292,23.2524017 L13.2894802,23.2524017 C13.4944882,23.2524017 13.6746938,23.1617177 13.8037442,23.0225912 C13.9459709,22.8923782 14.0385927,22.7094599 14.0385927,22.5013516 L14.0385926,16.3080942 L17.4508717,16.3080942 C17.8407357,16.3080942 18.1573549,15.9899249 18.1573549,15.5981231 C18.1573549,15.2063214 17.8407357,14.8877645 17.4508717,14.8877645 L14.0385926,14.8877645 L14.0385926,13.3209452 L17.4508717,13.3209452 C17.8407357,13.3209452 18.1573549,13.0027759 18.1573549,12.6109742 C18.1573549,12.2183974 17.8407357,11.900228 17.4508717,11.900228 L15.0151904,11.900228 L17.5411682,9.19520728 C17.8077949,8.9088161 17.7930684,8.4600462 17.5086149,8.19109429 C17.224549,7.92369254 16.7765542,7.93764393 16.510315,8.22364754 L13.3185456,11.6432898 L10.2275362,8.20078276 C9.96633508,7.91012867 9.51989039,7.88726388 9.22962383,8.14924008 C8.93974481,8.41199138 8.91688002,8.86114885 9.17808116,9.15219047 L11.6455406,11.900228 L9.21412227,11.900228 C8.82425824,11.900228 8.50725152,12.2183974 8.50725152,12.6109742 C8.50725152,13.0027759 8.82387071,13.3209452 9.21412227,13.3209452 L12.6260138,13.3209452 L12.6260138,14.8877645 L9.21412227,14.8877645 C8.82425824,14.8877645 8.50725152,15.2063214 8.50725152,15.5981231 C8.50725152,15.9899249 8.82387071,16.3080942 9.21412227,16.3080942 L12.6260138,16.3080942 L12.6260138,21.8324596 L6.34788535,21.8324596 C5.72472299,21.8324596 5.21820979,21.2689782 5.21820979,20.5768339 L5.21820981,9.55794356 C5.21820981,9.52616536 5.20387087,9.49942519 5.1999955,9.46880966 C5.20077058,9.46144641 5.20464596,9.45524581 5.20464596,9.44749502 C5.20542103,9.05530575 4.88957692,8.73713642 4.49893782,8.7359738 L1.98264846,8.73248594 L11.873801,1.95520758 C11.8958907,1.94009357 11.9206932,1.9203291 11.9408452,1.90288984 C12.0640825,1.7974793 13.1743811,0.895676521 14.381952,1.86568611 C14.3955158,1.87576212 14.4086922,1.88545058 14.422256,1.89552659 L23.8809152,8.4546206 C24.0401937,8.57126979 24.2107107,8.72396005 24.3440241,8.86269893 C24.2545026,8.86696184 24.1467669,8.87006218 24.0161663,8.86657432 L21.7672787,8.8762628 C21.7606905,8.8762628 21.7556525,8.87975066 21.7490644,8.87975066 C21.7420887,8.87975066 21.7370507,8.8762628 21.7296874,8.8762628 C21.3394359,8.8762628 21.0232043,9.19404461 21.0232043,9.5866214 L21.0270796,20.5764464 C21.0270796,21.2685906 20.5197913,21.832072 19.8970165,21.832072 L16.3064696,21.832072 C15.9166056,21.832072 15.600374,22.1494663 15.600374,22.5420431 C15.600374,22.9338448 15.9166056,23.2520142 16.3064696,23.2520142 L19.8970165,23.2520142 C21.2991319,23.2520142 22.4400461,22.0518065 22.4400461,20.5764463 L22.4377208,10.2931046 L24.0045401,10.2865165 C24.4494346,10.2942673 25.6356909,10.3217825 25.9329331,9.44051932 C26.2235872,8.57785796 25.2950443,7.73379848 24.7001723,7.29665474" id="Path"></path>
        </g>
    </g>
</svg>