<?xml version="1.0" standalone="no"?><!DOCTYPE svg PUBLIC "-//W3C//DTD SVG 1.1//EN" "http://www.w3.org/Graphics/SVG/1.1/DTD/svg11.dtd"><svg t="1566179094672" class="icon" viewBox="0 0 1024 1024" version="1.1" xmlns="http://www.w3.org/2000/svg" p-id="10804" xmlns:xlink="http://www.w3.org/1999/xlink" width="200" height="200"><defs><style type="text/css"></style></defs><path d="M221.184 247.296H616.96c15.872 0 28.672-12.8 28.672-28.672s-12.8-28.672-28.672-28.672H221.184c-15.872 0-28.672 12.8-28.672 28.672s12.8 28.672 28.672 28.672z m7.168 45.056c-16.384 0-29.696 13.312-29.696 29.696s13.312 29.696 29.696 29.696h292.864c16.384 0 29.696-13.312 29.696-29.696s-13.312-29.696-29.696-29.696H228.352z m205.824 175.616c16.384 0 29.696-13.312 29.696-29.696s-13.312-29.696-29.696-29.696H222.72c-16.384 0-29.696 13.312-29.696 29.696s13.312 29.696 29.696 29.696h211.456z m-60.928 64.512H233.984c-17.408 0-31.744 14.336-31.744 31.744s14.336 31.744 31.744 31.744h139.264c17.408 0 31.744-14.336 31.744-31.744s-14.336-31.744-31.744-31.744z" p-id="10805"></path><path d="M929.28 911.36L928.768 128c0-22.528-8.704-43.52-24.576-59.392S867.328 44.032 844.8 44.032H178.688c-46.592 0-84.48 37.888-84.48 84.48v791.552c0 5.632 1.536 10.752 4.096 15.36 10.752 34.304 42.496 59.392 80.384 59.392H844.8c44.032 0 80.384-33.792 83.968-76.8 0.512-2.56 0.512-4.608 0.512-6.656z m-99.84 29.184H174.592c-12.288 0-29.184-8.192-29.184-37.888l4.096-768.512c0-25.6 16.384-38.912 29.184-38.912H844.8c26.624 0 31.232 27.136 31.232 33.28v725.504l-1.024 43.008c-0.512 2.048-0.512 4.608-0.512 7.168 0 31.232-30.72 35.84-45.056 36.352z" p-id="10806"></path><path d="M791.552 437.76c-9.728-10.24-26.112-10.24-35.84 0l-20.992 20.48c-5.12 5.12-5.12 13.312 0 18.944l53.248 53.248c5.12 5.12 13.312 5.12 18.944 0l11.264-11.264c14.848-15.36 14.848-39.424 0-54.784l-26.624-26.624z m-80.896 63.488a12.98 12.98 0 0 0-18.432 0L460.8 732.672c-1.536 1.536-2.56 3.072-3.072 5.12l-24.576 77.824c-3.072 10.24 6.144 19.968 16.384 16.384l77.824-24.576c2.048-0.512 4.096-1.536 5.632-3.072l231.424-231.424c5.12-5.12 5.12-13.312 0-18.944l-53.76-52.736z" p-id="10807"></path></svg>