<?xml version="1.0" standalone="no"?><!DOCTYPE svg PUBLIC "-//W3C//DTD SVG 1.1//EN" "http://www.w3.org/Graphics/SVG/1.1/DTD/svg11.dtd"><svg t="1566178607799" class="icon" viewBox="0 0 1024 1024" version="1.1" xmlns="http://www.w3.org/2000/svg" p-id="1489" xmlns:xlink="http://www.w3.org/1999/xlink" width="200" height="200"><defs><style type="text/css"></style></defs><path d="M197.290667 950.954667c-68.949333 0-124.245333-55.978667-124.245334-124.245334v-716.8c0-20.48 16.384-36.864 36.864-36.864h570.709334c68.949333 0 124.245333 55.978667 124.245333 124.245334v204.8c0 20.48 16.384 36.864 36.864 36.864 20.48 0 36.864-16.384 36.864-36.864V182.954667c0-100.352-82.602667-182.954667-182.954667-182.954667H36.864C16.384 0 0 16.384 0 36.864v811.690667C0 945.493333 78.506667 1024 175.445333 1024h226.645334c20.48 0 36.864-16.384 36.864-36.864 0-20.48-16.384-36.864-36.864-36.864h-204.8z" p-id="1490"></path><path d="M694.954667 256h-512c-21.845333 0-36.864 14.336-36.864 36.864 0 21.845333 14.336 36.864 36.864 36.864h512c21.845333 0 36.864-14.336 36.864-36.864-0.682667-22.528-15.018667-36.864-36.864-36.864zM516.778667 475.136H182.954667c-21.845333 0-36.864 14.336-36.864 36.864s14.336 36.864 36.864 36.864h333.824c21.845333 0 36.864-14.336 36.864-36.864s-15.018667-36.864-36.864-36.864zM402.090667 694.954667H182.954667c-21.845333 0-36.864 14.336-36.864 36.864s14.336 36.864 36.864 36.864h219.136c21.845333 0 36.864-14.336 36.864-36.864s-15.018667-36.864-36.864-36.864zM1024 989.866667c0-2.048 0-4.778667-0.682667-6.826667-6.826667-98.304-69.632-180.906667-156.330666-217.088 35.498667-28.672 58.026667-73.045333 58.026666-122.197333 0-86.698667-70.314667-157.013333-157.013333-157.013334s-157.013333 70.314667-157.013333 157.013334c0 49.152 22.528 93.525333 58.026666 122.197333-90.112 37.546667-153.6 125.610667-157.013333 228.693333h0.682667c2.048 16.384 16.384 29.354667 33.450666 29.354667 18.432 0 34.133333-15.018667 34.133334-34.133333v-1.365334c6.826667-97.621333 88.746667-174.762667 187.733333-174.762666 101.717333 0 184.32 80.554667 188.416 180.906666h0.682667c2.048 16.384 16.384 29.354667 33.450666 29.354667s31.402667-12.288 33.450667-29.354667v-1.365333-3.413333z m-256-256c-49.834667 0-89.429333-40.277333-89.429333-89.429334s40.277333-89.429333 89.429333-89.429333 89.429333 40.277333 89.429333 89.429333c0 49.152-40.277333 89.429333-89.429333 89.429334z" p-id="1491"></path></svg>