<?xml version="1.0" standalone="no"?><!DOCTYPE svg PUBLIC "-//W3C//DTD SVG 1.1//EN" "http://www.w3.org/Graphics/SVG/1.1/DTD/svg11.dtd"><svg class="icon" width="200px" height="200.00px" viewBox="0 0 1024 1024" version="1.1" xmlns="http://www.w3.org/2000/svg"><path d="M659.2 646.4c0 19.2 12.8 32 32 32h256c19.2 0 32-12.8 32-32s-12.8-32-32-32h-256c-19.2 0-32 19.2-32 32zM947.2 742.4h-256c-19.2 0-32 12.8-32 32s12.8 32 32 32h256c19.2 0 32-12.8 32-32 0-12.8-12.8-32-32-32zM947.2 870.4h-256c-19.2 0-32 12.8-32 32s12.8 32 32 32h256c19.2 0 32-12.8 32-32 0-12.8-12.8-32-32-32zM723.2 300.8c0-140.8-115.2-256-256-256s-256 115.2-256 256c0 108.8 64 198.4 153.6 236.8-166.4 44.8-281.6 192-281.6 371.2 0 19.2 12.8 32 32 32s32-12.8 32-32c0-179.2 140.8-320 320-320 44.8 0 89.6 12.8 128 25.6 6.4 0 6.4 6.4 12.8 6.4 19.2 0 32-12.8 32-32 0-12.8-6.4-25.6-19.2-32-19.2-12.8-38.4-19.2-51.2-25.6 89.6-38.4 153.6-128 153.6-230.4z m-256 192c-108.8 0-192-83.2-192-192s83.2-192 192-192 192 83.2 192 192c0 102.4-89.6 192-192 192z" /></svg>