<?xml version="1.0" standalone="no"?><!DOCTYPE svg PUBLIC "-//W3C//DTD SVG 1.1//EN" "http://www.w3.org/Graphics/SVG/1.1/DTD/svg11.dtd"><svg t="1544604625459" class="icon" style="" viewBox="0 0 1024 1024" version="1.1" xmlns="http://www.w3.org/2000/svg" p-id="3640" xmlns:xlink="http://www.w3.org/1999/xlink" width="200" height="200"><defs><style type="text/css"></style></defs><path d="M605.1 799.2c-18.8 0-34.1 15.3-34.1 34.1 0 31.9-25.9 57.8-57.8 57.8s-57.8-25.9-57.8-57.8c0-18.8-15.3-34.1-34.1-34.1s-34.1 15.3-34.1 34.1c0 69.5 56.5 126 126 126s126-56.5 126-126c0-18.8-15.3-34.1-34.1-34.1zM834.1 684.5c-50-37.5-79.9-97.2-79.9-159.7V399.7c-2.7-112.5-78.2-208.4-183.8-233.4-3.6-0.8-7.2-1.6-10.8-2.2 1.8-5.1 3-10.6 3-16.4 0-27.3-22.1-49.5-49.5-49.5-27.3 0-49.5 22.1-49.5 49.5 0 5.8 1.2 11.3 3 16.5-37.1 7.3-72.2 23.2-102.7 47.3-58.3 46.2-91.8 115-91.8 188.8v124.3c0 62.5-29.9 122.2-79.9 159.7-18.1 13.6-25.5 37.2-18.3 58.7 7.2 21.5 27.2 35.9 49.8 35.9h75.8c0.8 0.1 1.6 0.1 2.3 0.1h500.4c22.7 0 42.7-14.4 49.9-35.9 7.5-21.4 0.2-45-18-58.6z" p-id="3641"></path></svg>