<?xml version="1.0" standalone="no"?><!DOCTYPE svg PUBLIC "-//W3C//DTD SVG 1.1//EN" "http://www.w3.org/Graphics/SVG/1.1/DTD/svg11.dtd"><svg t="1556002959047" class="icon" style="" viewBox="0 0 1024 1024" version="1.1" xmlns="http://www.w3.org/2000/svg" p-id="8642" xmlns:xlink="http://www.w3.org/1999/xlink" width="200" height="200"><defs><style type="text/css"></style></defs><path d="M334.955442 400.522839c-31.584838 0-58.426423 26.842609-58.426423 58.426423 0 33.158758 26.842609 58.4254 58.426423 58.4254 31.579721 0 58.426423-26.845679 58.426423-58.4254C393.381865 425.784364 366.535163 400.522839 334.955442 400.522839L334.955442 400.522839zM747.099503 458.949262c0-33.164898-26.842609-58.426423-58.426423-58.426423-31.579721 0-58.426423 26.842609-58.426423 58.426423 0 33.158758 26.846703 58.4254 58.426423 58.4254C720.256894 517.374662 747.099503 490.528983 747.099503 458.949262L747.099503 458.949262zM811.842075 181.027457C664.984452 45.22207 443.911056 27.851637 274.949982 130.494173c-33.163875 20.528507-3.159098 72.637758 30.000684 52.109251 120.010921-72.636735 268.448605-78.953907 391.617601-12.631274 104.222596 56.846363 175.27927 159.488898 195.807777 274.761684 22.107544 118.435977-17.368386 243.181963-97.903377 330.034127-82.114028 88.432224-200.545912 131.063158-320.556833 121.590982-120.011944-9.47627-228.971652-82.113005-292.13621-183.176503-74.216795-118.431884-74.216795-274.761684-4.734042-396.352666 18.948446-33.164898-33.162851-63.164558-52.112321-30.0058-69.47866 121.590982-78.95493 271.608727-22.107544 402.671885 47.374186 110.538745 135.805387 194.23181 246.341061 238.442805 113.692726 47.37521 243.181963 39.477977 353.715591-11.051214C810.263038 867.933202 892.376043 773.188923 933.433057 662.653248 993.439541 495.267118 941.331313 299.459341 811.842075 181.027457L811.842075 181.027457zM811.842075 181.027457" p-id="8643" fill="#515151"></path><path d="M725.160813 671.459221c0 14.62477-11.855571 26.481365-26.481365 26.481365L315.42266 697.940585c-14.62477 0-26.480341-11.855571-26.480341-26.481365l0 0c0-14.62477 11.855571-26.480341 26.480341-26.480341l383.257812 0C713.305242 644.978879 725.160813 656.83445 725.160813 671.459221L725.160813 671.459221z" p-id="8644" fill="#515151"></path></svg>