<?xml version="1.0" standalone="no"?><!DOCTYPE svg PUBLIC "-//W3C//DTD SVG 1.1//EN" "http://www.w3.org/Graphics/SVG/1.1/DTD/svg11.dtd"><svg class="icon" width="200px" height="200.00px" viewBox="0 0 1024 1024" version="1.1" xmlns="http://www.w3.org/2000/svg"><path d="M736.2 576l-448 0c-17.8 0-32 14.4-32 32 0 17.8 14.4 32 32 32l448 0c17.8 0 32-14.4 32-32C768.2 590.4 754 576 736.2 576zM736.2 383.4l-448 0c-17.8 0-32 14.4-32 32 0 17.6 14.4 32 32 32l448 0c17.8 0 32-14.4 32-32C768.2 397.8 754 383.4 736.2 383.4zM736.2 192.2l-448 0c-17.8 0-32 14.4-32 32s14.4 32 32 32l448 0c17.8 0 32-14.4 32-32C768 206.6 754 192.2 736.2 192.2zM832.2 0l-640 0c-70.8 0-128 57.4-128 128l0 896L124 1024l132.2-96 128 96 128-96 128 96 128-96 132 96L960 1024 960 128C960.2 57.4 902.8 0 832.2 0zM896.2 961l-128-97-128 102-128-102-128 102-128-102-128 97.8L128.2 128c0-35.4 28.8-64 64-64l640 0c35.4 0 64 28.8 64 64L896.2 961 896.2 961 896.2 961z" /></svg>