<?xml version="1.0" standalone="no"?><!DOCTYPE svg PUBLIC "-//W3C//DTD SVG 1.1//EN" "http://www.w3.org/Graphics/SVG/1.1/DTD/svg11.dtd"><svg t="1566178296135" class="icon" viewBox="0 0 1025 1024" version="1.1" xmlns="http://www.w3.org/2000/svg" p-id="1160" xmlns:xlink="http://www.w3.org/1999/xlink" width="200.1953125" height="200"><defs><style type="text/css"></style></defs><path d="M1.024 1024V0h1024v1024h-1024zM960 63.04H64v896h896v-896zM190.016 635.776h66.496v257.664H190.016V635.776z m198.976-123.584h62.208v382.72h-62.208v-382.72z m190.144 62.592h62.08v319.232h-62.08V574.912z m191.168-121.6h60.928v440.832h-60.928V453.376zM197.632 521.536l-45.248-45.248L366.72 261.952l45.248 45.248z m124.352-214.656l45.248-45.312 158.464 158.464-45.248 45.248z m203.52 203.136l-45.248-45.312 304.256-304.256 45.504 45.248z" p-id="1161"></path></svg>