<?xml version="1.0" standalone="no"?>
<!DOCTYPE svg PUBLIC "-//W3C//DTD SVG 1.1//EN" "http://www.w3.org/Graphics/SVG/1.1/DTD/svg11.dtd">
<svg class="icon" viewBox="0 0 1024 1024" version="1.1" xmlns="http://www.w3.org/2000/svg"  width="200px" height="200px">
<path d="M960 448c-25.6-198.4-185.6-352-384-384V0c230.4 32 416 211.2 448 448h-64zM332.8 448H262.4C288 358.4 358.4 288 448 262.4v70.4c-57.6 19.2-96 57.6-115.2 115.2zM64 448H0C32 217.6 211.2 32 448 0v64c-198.4 32-352 185.6-384 384z m0 128c25.6 198.4 185.6 352 384 384v64c-230.4-32-416-211.2-448-448h64z m384 115.2v70.4c-89.6-25.6-160-96-185.6-185.6h70.4c19.2 57.6 57.6 96 115.2 115.2zM691.2 576h70.4c-25.6 89.6-96 160-185.6 185.6v-70.4c57.6-19.2 96-57.6 115.2-115.2z m70.4-128h-70.4c-19.2-57.6-64-96-115.2-115.2V262.4c89.6 25.6 160 96 185.6 185.6zM960 576h64c-32 230.4-211.2 416-448 448v-64c198.4-32 352-185.6 384-384z" p-id="1115" />
</svg>