<?xml version="1.0" standalone="no"?><!DOCTYPE svg PUBLIC "-//W3C//DTD SVG 1.1//EN" "http://www.w3.org/Graphics/SVG/1.1/DTD/svg11.dtd"><svg t="1573195254809" class="icon" viewBox="0 0 1024 1024" version="1.1" xmlns="http://www.w3.org/2000/svg" p-id="5977" xmlns:xlink="http://www.w3.org/1999/xlink" width="200" height="200"><defs><style type="text/css"></style></defs><path d="M967.168 373.248c-25.088-25.088-58.368-38.912-94.208-38.912S803.84 348.16 778.752 373.248l-384 384c-5.12 5.12-8.192 10.752-9.216 17.408l-34.816 174.592c-2.048 11.264 1.024 23.04 9.216 30.72 6.656 6.656 14.848 9.728 24.064 9.728 2.048 0 4.608 0 6.656-0.512l174.592-34.816c6.656-1.024 12.8-4.608 17.408-9.216l384-384c25.088-25.088 38.912-58.368 38.912-94.208 0.512-34.816-13.312-68.608-38.4-93.696z m-48.128 48.64c25.088 25.088 25.088 66.048 0 91.648l-8.704 8.704L819.2 430.08l8.704-8.704c25.088-25.088 66.048-25.088 91.136 0.512z m-376.832 467.968l-114.176 23.04 23.04-114.688 320-320 91.648 91.648-320.512 320z m334.848-117.76c-18.944 0-33.792 15.36-33.792 33.792V921.6h-112.64c-18.944 0-33.792 15.36-33.792 33.792 0 18.944 15.36 33.792 33.792 33.792h146.944c18.944 0 33.792-15.36 33.792-33.792v-150.016c0-17.92-15.36-33.28-34.304-33.28zM221.184 922.112H96.768V101.376h746.496v109.056c0 18.944 15.36 33.792 33.792 33.792 18.944 0 33.792-15.36 33.792-33.792v-143.36c0-18.944-15.36-33.792-33.792-33.792H62.464c-18.944 0-33.792 15.36-33.792 33.792v888.832c0 18.944 15.36 33.792 33.792 33.792h158.72c18.944 0 33.792-15.36 33.792-33.792 0.512-18.432-14.848-33.792-33.792-33.792z m259.072-430.08L721.408 250.88c13.312-13.312 13.312-34.816 0-48.128a33.9968 33.9968 0 0 0-48.128 0L456.192 419.84 366.592 330.24a33.9968 33.9968 0 0 0-48.128 0L197.12 451.072a33.9968 33.9968 0 0 0 0 48.128c6.656 6.656 15.36 9.728 24.064 9.728 8.704 0 17.408-3.072 24.064-9.728l96.768-96.768 89.6 89.6c13.824 13.312 35.328 13.312 48.64 0z" p-id="5978"></path></svg>