<?xml version="1.0" standalone="no"?><!DOCTYPE svg PUBLIC "-//W3C//DTD SVG 1.1//EN" "http://www.w3.org/Graphics/SVG/1.1/DTD/svg11.dtd"><svg t="1574736942144" class="icon" viewBox="0 0 1024 1024" version="1.1" xmlns="http://www.w3.org/2000/svg" p-id="3828" xmlns:xlink="http://www.w3.org/1999/xlink" width="200" height="200"><defs><style type="text/css"></style></defs><path d="M415.2 128H195.4c-36.6 0-66.2 29.6-66.2 66.2V414c0 36.6 29.6 66.2 66.2 66.2h219.8c36.6 0 66.2-29.6 66.2-66.2V194.2c0-36.6-29.6-66.2-66.2-66.2z m18.2 285.8c0 10-8.2 18.2-18.2 18.2H195.4c-10 0-18.2-8.2-18.2-18.2V194.2c0-10 8.2-18.2 18.2-18.2h219.8c10 0 18.2 8.2 18.2 18.2v219.6zM721.4 498.8c-19.2 0-38.4-7.4-53-22l-119.8-119.8c-14.2-14.2-22-33-22-53s7.8-38.8 22-53l119.8-119.8c29.2-29.2 76.8-29.2 106 0l119.8 119.8c29.2 29.2 29.2 76.8 0 106l-119.8 119.8c-14.6 14.8-33.8 22-53 22z m-19.2-333.8l-119.8 119.8c-5.2 5-8 11.8-8 19s2.8 14 8 19l119.8 119.8c10.4 10.6 27.6 10.4 38.2 0l119.8-119.8c5-5 8-11.8 8-19s-2.8-14-8-19l-119.8-119.8c-10.6-10.4-27.6-10.6-38.2 0zM831.2 544H611.4c-36.6 0-66.2 29.6-66.2 66.2V830c0 36.6 29.6 66.2 66.2 66.2h219.8c36.6 0 66.2-29.6 66.2-66.2V610.2c0-36.6-29.6-66.2-66.2-66.2z m18.2 285.8c0 10-8.2 18.2-18.2 18.2H611.4c-10 0-18.2-8.2-18.2-18.2V610.2c0-10 8.2-18.2 18.2-18.2h219.8c10 0 18.2 8.2 18.2 18.2v219.6zM415.2 544H195.4c-36.6 0-66.2 29.6-66.2 66.2V830c0 36.6 29.6 66.2 66.2 66.2h219.8c36.6 0 66.2-29.6 66.2-66.2V610.2c0-36.6-29.6-66.2-66.2-66.2z m18.2 285.8c0 10-8.2 18.2-18.2 18.2H195.4c-10 0-18.2-8.2-18.2-18.2V610.2c0-10 8.2-18.2 18.2-18.2h219.8c10 0 18.2 8.2 18.2 18.2v219.6z" p-id="3829"></path></svg>