<?xml version="1.0" standalone="no"?><!DOCTYPE svg PUBLIC "-//W3C//DTD SVG 1.1//EN" "http://www.w3.org/Graphics/SVG/1.1/DTD/svg11.dtd"><svg t="1577958298389" class="icon" viewBox="0 0 1024 1024" version="1.1" xmlns="http://www.w3.org/2000/svg" p-id="3429" xmlns:xlink="http://www.w3.org/1999/xlink" width="200" height="200"><defs><style type="text/css"></style></defs><path d="M96 64A32 32 0 0 1 128 32h768a32 32 0 0 1 32 32v640a32 32 0 0 1-14.272 26.624l-384 256a32 32 0 0 1-35.456 0l-384-256A32 32 0 0 1 96 704V64z m64 32v590.848L512 921.6l352-234.688V96h-704z m216.448 587.456a32 32 0 0 1-46.464-33.728l25.92-151.04-109.696-106.88a32 32 0 0 1 17.728-54.592l151.552-22.016 67.84-137.344a32 32 0 0 1 57.344 0l67.84 137.344 151.552 22.016a32 32 0 0 1 17.728 54.592l-109.696 106.88 25.92 151.04a32 32 0 0 1-46.464 33.728L512 612.16l-135.552 71.296z m120.64-135.808a32 32 0 0 1 29.824 0l93.056 48.96-17.792-103.68a32 32 0 0 1 9.216-28.288l75.328-73.408-104.064-15.104a32 32 0 0 1-24.128-17.536L512 264.32l-46.528 94.272a32 32 0 0 1-24.128 17.536l-104.064 15.104L412.608 464.64a32 32 0 0 1 9.216 28.352l-17.792 103.68 93.056-49.024z" p-id="3430"></path></svg>