<?xml version="1.0" standalone="no"?><!DOCTYPE svg PUBLIC "-//W3C//DTD SVG 1.1//EN" "http://www.w3.org/Graphics/SVG/1.1/DTD/svg11.dtd"><svg t="1577958292327" class="icon" viewBox="0 0 1024 1024" version="1.1" xmlns="http://www.w3.org/2000/svg" p-id="3297" xmlns:xlink="http://www.w3.org/1999/xlink" width="200" height="200"><defs><style type="text/css"></style></defs><path d="M864.729 80.129c15.196 0 29.495 5.917 40.262 16.659 10.773 10.75 16.768 25.07 16.886 40.333v304.456c0 2.383-0.174 4.811-0.518 7.214l-0.555 3.874V938.544L529.299 773.425l-21.638-9.126-21.557 9.316L102.9 939.245V137.992c0-30.418 23.257-55.596 53.172-57.863h708.657m0-55H154.336C95.043 28.343 47.9 77.631 47.9 137.992V977.68c0 9.999 5.002 18.93 13.213 24.642 5.001 3.214 10.719 5.002 16.074 5.002 3.929 0 7.857-0.715 11.786-2.141l418.953-181.081 426.806 180.008c3.657 1.463 7.616 2.206 11.577 2.206 5.712 0 11.433-1.545 16.283-4.709 8.216-5.712 13.213-14.644 13.213-24.642V456.579a105.794 105.794 0 0 0 1.072-15.001v-304.66c-0.357-61.786-50.361-111.789-112.148-111.789z" p-id="3298"></path><path d="M650.79 694.446c-12.217 0-23.87-3.801-33.703-10.99l-105.233-76.452-105.272 76.479c-9.837 7.123-21.405 10.876-33.486 10.876s-23.649-3.753-33.453-10.853c-20.072-14.493-28.415-40.083-20.73-63.654l40.236-123.488-105.256-76.467c-20.037-14.467-28.381-40.056-20.699-63.628 7.606-23.507 29.316-39.338 54.003-39.338H417.23l40.253-123.864c7.61-23.525 29.321-39.356 54.014-39.356 24.834 0 47.013 16.28 54.104 39.648l40.146 123.214h130.045c24.218 0 45.979 15.556 54.15 38.708l0.079 0.229c8.222 23.966 0.228 49.852-19.892 64.415l-105.213 76.439 40.233 123.494c7.624 23.558-0.687 49.085-20.663 63.599-9.965 7.292-21.302 10.989-33.696 10.989zM511.854 539.021l137.69 100.034c0.346 0.253 0.646 0.391 1.245 0.391 0.509 0 0.702-0.053 0.704-0.053 0 0 0.167-0.067 0.527-0.331l0.137-0.1c0.693-0.503 0.948-1.295 0.682-2.118l-52.605-161.47L737.843 375.4c0.575-0.416 0.357-1.409 0.195-1.924-0.249-0.65-0.904-1.902-2.245-1.902H565.822l-52.852-162.25c-0.032-0.108-0.518-0.613-1.473-0.613-0.6 0-1.444 0.542-1.695 1.319l-52.614 161.901H287.197c-0.597 0-1.439 0.545-1.692 1.327-0.264 0.81 0.004 1.629 0.649 2.095l137.68 100.022-52.628 161.521a1.815 1.815 0 0 0 0.667 2.043c0.791 0.573 1.688 0.549 2.417 0.022l137.564-99.94z" p-id="3299"></path></svg>