<?xml version="1.0" standalone="no"?><!DOCTYPE svg PUBLIC "-//W3C//DTD SVG 1.1//EN" "http://www.w3.org/Graphics/SVG/1.1/DTD/svg11.dtd"><svg t="1577932779813" class="icon" viewBox="0 0 1024 1024" version="1.1" xmlns="http://www.w3.org/2000/svg" p-id="4073" xmlns:xlink="http://www.w3.org/1999/xlink" width="200" height="200"><defs><style type="text/css"></style></defs><path d="M737 942a207 207 0 1 1 207-207 207.234 207.234 0 0 1-207 207z m0-342a135 135 0 1 0 135 135 135.152 135.152 0 0 0-135-135z m-36 60h72v54h40v72H701V660zM508 906H174a96.11 96.11 0 0 1-96-96V174a96.108 96.108 0 0 1 96-96h540a96.11 96.11 0 0 1 96 96v304h-72V174a24.028 24.028 0 0 0-24-24H174a24.028 24.028 0 0 0-24 24v636a24.028 24.028 0 0 0 24 24h334v72zM292.74 464L188 356.624l51.4-50.094 50.814 52.09 98.042-110.632L442 295.566zM666 414H460v-72h206v72zM292.74 716L188 608.624l51.4-50.094 50.814 52.09 98.042-110.632L442 547.566z" p-id="4074"></path></svg>