<?xml version="1.0" standalone="no"?><!DOCTYPE svg PUBLIC "-//W3C//DTD SVG 1.1//EN" "http://www.w3.org/Graphics/SVG/1.1/DTD/svg11.dtd"><svg t="1577934108164" class="icon" viewBox="0 0 1024 1024" version="1.1" xmlns="http://www.w3.org/2000/svg" p-id="6963" xmlns:xlink="http://www.w3.org/1999/xlink" width="200" height="200"><defs><style type="text/css"></style></defs><path d="M856.6784 1024 167.2192 1024C103.2704 1024 51.2 971.6224 51.2 907.0592L51.2 116.992C51.2 52.48 103.2704 0 167.2192 0l689.4592 0C920.6784 0 972.8 52.7872 972.8 117.7088l0 512.3072c0 13.5168-10.9056 24.4736-24.32 24.4736s-24.2688-10.9568-24.2688-24.4736L924.2112 117.7088c0-37.9904-30.3104-68.9152-67.5328-68.9152L167.2192 48.7936c-37.2224 0-67.5328 30.6176-67.5328 68.1984l0 789.9648c0 37.5808 30.3104 68.2496 67.5328 68.2496l689.4592 0c37.3248 0 67.5328-30.9248 67.5328-68.9664l0-92.5696c0-13.4144 10.8544-24.3712 24.2688-24.3712S972.8 800.3072 972.8 813.7216L972.8 906.24C972.8 971.2128 920.6784 1024 856.6784 1024L856.6784 1024z" p-id="6964"></path><path d="M777.0624 814.08l-206.2336 0c-13.312 0-24.2176-11.008-24.2176-24.4224 0-13.5168 10.9056-24.4224 24.2176-24.4224l206.2336 0c13.3632 0 24.2688 10.9056 24.2688 24.4224S790.4256 814.08 777.0624 814.08L777.0624 814.08z" p-id="6965"></path><path d="M437.4528 814.08 231.2704 814.08c-13.3632 0-24.2688-11.008-24.2688-24.4224 0-13.5168 10.8544-24.4224 24.2688-24.4224l206.2336 0c13.4144 0 24.2688 10.9056 24.2688 24.4224S450.9696 814.08 437.4528 814.08L437.4528 814.08z" p-id="6966"></path><path d="M777.0624 673.0752l-206.2336 0c-13.312 0-24.2176-10.9056-24.2176-24.4224 0-13.4656 10.9056-24.4224 24.2176-24.4224l206.2336 0c13.3632 0 24.2688 10.9568 24.2688 24.4224C801.28 662.2208 790.4256 673.0752 777.0624 673.0752L777.0624 673.0752z" p-id="6967"></path><path d="M437.4528 673.0752 231.2704 673.0752c-13.3632 0-24.2688-10.9056-24.2688-24.4224 0-13.4656 10.8544-24.4224 24.2688-24.4224l206.2336 0c13.4144 0 24.2688 10.9568 24.2688 24.4224C461.7728 662.2208 450.9696 673.0752 437.4528 673.0752L437.4528 673.0752z" p-id="6968"></path><path d="M437.4528 365.7216" p-id="6969"></path><path d="M379.5456 491.3152l108.5952-293.2224 40.2944 0 115.712 293.2224-42.6496 0-32.9728-88.7808L450.304 402.5344 419.2768 491.3152 379.5456 491.3152zM461.1072 370.8928l95.8976 0L527.4624 289.6896C518.4512 265.0112 511.7952 244.7872 507.4432 228.9152 503.808 247.7056 498.7392 266.3936 492.1856 284.8768L461.1072 370.8928z" p-id="6970"></path></svg>