<?xml version="1.0" standalone="no"?><!DOCTYPE svg PUBLIC "-//W3C//DTD SVG 1.1//EN" "http://www.w3.org/Graphics/SVG/1.1/DTD/svg11.dtd"><svg t="1577935461598" class="icon" viewBox="0 0 1024 1024" version="1.1" xmlns="http://www.w3.org/2000/svg" p-id="18635" xmlns:xlink="http://www.w3.org/1999/xlink" width="200" height="200"><defs><style type="text/css"></style></defs><path d="M185.9 117.2h652.3v789.6H185.9z" fill="#333333" opacity=".1" p-id="18636"></path><path d="M802.6 65.7H221.4c-48.1 0-87.2 40-87.2 89.3v714.1c0 49.2 39.1 89.3 87.2 89.3h581.1c48.1 0 87.2-40 87.2-89.3V154.9c0-49.2-39.1-89.2-87.1-89.2z m-464.9 59.5h348.7v89.3H337.7v-89.3z m493.9 743.9c0 16.4-13 29.8-29.1 29.8H221.4c-16 0-29.1-13.3-29.1-29.8V154.9c0-16.4 13-29.8 29.1-29.8h58.1v89.3c0 32.8 26.1 59.5 58.1 59.5h348.7c32.1 0 58.1-26.7 58.1-59.5v-89.3h58.1c16 0 29.1 13.4 29.1 29.8v714.2zM602.5 538.7v-1.1c10.8-5.2 19.8-11.1 27.2-17.6 7.3-6.1 13-12.6 16.9-19.4 7.7-14.3 11.4-29.4 11-45.1 0-30.8-9.3-55.5-27.9-74.2-18.4-18.5-46-28-82.7-28.3H402.1v382.5h157.3c29.4 0 53.9-10.1 73.5-30.2 19.8-19.2 29.9-45.4 30.2-78.4 0-19.9-4.9-38.4-14.6-55.4-10.3-16.5-25.7-27.4-46-32.8zM458.8 404.6h81.7c20.7 0.4 35.9 5.5 45.6 15.5 9.9 10.7 14.9 23.7 14.9 39.1 0 15.4-5 28.2-14.9 38.3-9.7 11-24.9 16.5-45.6 16.5h-81.7V404.6zM592 663c-9.7 11.4-25.1 17.2-46.1 17.6h-87.1V565.7h87.1c21 0.4 36.4 6 46.1 17.1 9.7 11.2 14.6 24.7 14.6 40.4 0 15.3-4.9 28.6-14.6 39.8z" fill="#333333" p-id="18637"></path></svg>