<?xml version="1.0" standalone="no"?><!DOCTYPE svg PUBLIC "-//W3C//DTD SVG 1.1//EN" "http://www.w3.org/Graphics/SVG/1.1/DTD/svg11.dtd"><svg t="1577958006139" class="icon" viewBox="0 0 1024 1024" version="1.1" xmlns="http://www.w3.org/2000/svg" p-id="1236" xmlns:xlink="http://www.w3.org/1999/xlink" width="200" height="200"><defs><style type="text/css"></style></defs><path d="M801.87591553 684.79406738c-1.54248047-1.54083252-3.38983154-2.15881348-5.54699707-2.15881347H242.88659668c-2.15881348 0-4.0078125 0.61798096-5.55029297 2.15881347-1.54083252 1.54248047-2.15881348 3.39312745-2.15881348 5.55029297s0.61798096 4.0078125 2.15881348 5.54699707c1.54248047 1.23596192 3.3914795 2.16046143 5.55029296 2.16046143h553.44232179c2.15881348 0 4.00616455-0.92449951 5.54699706-2.16046143 1.23596192-1.54083252 2.16046143-3.38983154 2.16046143-5.54699707s-0.92449951-4.00946045-2.16046143-5.55029297zM801.87591553 772.35620117c-1.54248047-1.54083252-3.38983154-2.15881348-5.54699707-2.15881348H242.88659668c-2.15881348 0-4.0078125 0.61798096-5.55029297 2.15881348-1.54083252 1.23431396-2.15881348 3.08331299-2.15881348 5.24212646s0.61798096 4.00946045 2.15881348 5.55029297c1.54248047 1.54248047 3.3914795 2.15881348 5.55029296 2.15881348h553.44232179c2.15881348 0 4.00616455-0.61633301 5.54699706-2.15881348 1.23596192-1.54248047 2.16046143-3.39312745 2.16046143-5.55029297s-0.92449951-4.0078125-2.16046143-5.24212646zM801.87591553 597.8449707c-1.54248047-1.54083252-3.38983154-2.15881348-5.54699707-2.15881348H242.88659668c-2.15881348 0-4.0078125 0.61798096-5.55029297 2.15881348-1.54083252 1.54412842-2.15881348 3.39312745-2.15881348 5.55029297s0.61798096 4.00946045 2.15881348 5.55029297c1.54248047 1.23266602 3.3914795 2.15881348 5.55029296 2.15881348h553.44232179c2.15881348 0 4.00616455-0.92614746 5.54699706-2.15881348 1.23596192-1.54248047 2.16046143-3.39312745 2.16046143-5.55029297s-0.92449951-4.0078125-2.16046143-5.55029297zM801.87591553 521.99645996c1.23596192-1.54083252 2.16046143-3.38983154 2.16046142-5.54699707 0-2.16210938-0.92449951-4.01110839-2.16046142-5.55194091-1.54248047-1.54248047-3.38983154-2.15881348-5.54699707-2.15881349H242.88659668c-2.15881348 0-4.0078125 0.61633301-5.55029297 2.15881349-1.54083252 1.54083252-2.15881348 3.38983154-2.15881348 5.55194091 0 2.15881348 0.61798096 4.0078125 2.15881348 5.54699707 1.54248047 1.23431396 3.3914795 2.16046143 5.55029296 2.16046142h553.44232179c2.15716551 0 4.00451661-0.92614746 5.54699706-2.16046142z" fill="" p-id="1237"></path><path d="M793.24230957 224.77398682c-1.54083252-1.54248047-3.3914795-2.46533203-5.54864502-2.46533203h-70.29492187c-2.16046143 0-4.01110839 0.92449951-5.24377442 2.46533203-1.54248047 1.23266602-2.46533203 3.08331299-2.46533203 5.24212646s0.92449951 4.0078125 2.46533203 5.54864502c1.23266602 1.54248047 3.08331299 2.15881348 5.24377442 2.15881348h62.58746337v191.16210937h-62.58746337c-2.16046143 0-4.01110839 0.61633301-5.24377442 2.15716553-1.54248047 1.54248047-2.46533203 3.3914795-2.46533203 5.55029296s0.92449951 4.0078125 2.46533203 5.55029297a7.44213867 7.44213867 0 0 0 5.24377442 2.15881348h70.29492187c2.15881348 0 4.00946045-0.92614746 5.54864502-2.15881348 1.23431396-1.54248047 2.16046143-3.3914795 2.16046142-5.55029297V230.01611328c0-2.15881348-0.92614746-4.00946045-2.16046142-5.24212646zM419.55499268 295.6885376c-1.54083252 1.23266602-2.46533203 3.08331299-2.46533203 5.24212646v77.08117676c0 2.15716551 0.92449951 4.0078125 2.46533203 5.54864501 1.23431396 1.54248047 3.08496094 2.15881348 5.24377441 2.15881349h77.07952881c2.15881348 0 4.00946045-0.61798096 5.55029297-2.15881349s2.15881348-3.3914795 2.15881347-5.548645V300.93066406c0-2.15881348-0.61798096-4.00946045-2.15881347-5.24212646-1.54083252-1.54248047-3.3914795-2.46697998-5.55029297-2.46697999h-77.07952881c-2.16046143 0.00164795-4.00946045 0.92449951-5.24377441 2.46697999z m12.94958495 12.9512329h61.66461182v61.66296388h-61.66461182v-61.66296387zM394.27215577 295.6885376c-1.54412842-1.54248047-3.3914795-2.46697998-5.55029298-2.46697999h-77.08117675c-2.15881348 0-4.0078125 0.92449951-5.55029297 2.46697999-1.54083252 1.23266602-2.15881348 3.08331299-2.15881348 5.24212646v77.08117676c0 2.15716551 0.61798096 4.0078125 2.15881348 5.54864501 1.54248047 1.54248047 3.3914795 2.15881348 5.55029297 2.15881349h77.08117675c2.15881348 0 4.00616455-0.61798096 5.55029296-2.15881349 1.23431396-1.54248047 2.15881348-3.3914795 2.15881349-5.548645V300.93066406c0-2.15881348-0.92614746-4.00946045-2.15881349-5.24212646z m-74.92401124 12.9512329h61.66461182v61.66296388h-61.66461182v-61.66296387z" fill="" p-id="1238"></path><path d="M326.13275146 224.77398682c-1.54248047-1.54248047-3.38983154-2.46533203-5.54864501-2.46533203h-65.36590577c-2.15881348 0-4.31762695 0.92449951-5.54864501 2.46533203-1.54248047 1.23266602-2.15881348 3.08331299-2.15881348 5.24212646v206.57702636c0 2.15881348 0.61798096 4.0078125 2.15881348 5.55029297 1.23266602 1.23266602 3.38983154 2.15881348 5.54864501 2.15881348h58.88946534c2.15881348 0 4.01110839-0.92614746 5.55194091-2.15881348 1.54248047-1.54248047 2.15551758-3.3914795 2.15551758-5.55029297s-0.61468506-4.00946045-2.15551758-5.55029296c-1.54248047-1.54083252-3.39312745-2.15716551-5.55194091-2.15716553h-51.18200685v-191.16210937h57.65844728c2.15881348 0 4.0078125-0.61633301 5.54864501-2.15881348 1.54248047-1.54083252 2.15881348-3.3914795 2.15881348-5.54864502s-0.61633301-4.00946045-2.15881348-5.24212646zM646.17108154 295.6885376c-1.54083252 1.23266602-2.46533203 3.08331299-2.46533203 5.24212646v77.08117676c0 2.15716551 0.92614746 4.0078125 2.46533203 5.54864501 1.23596192 1.54248047 3.08331299 2.15881348 5.24377442 2.15881349h77.08117675c2.15881348 0 4.00616455-0.61798096 5.54864502-2.15881349 1.54248047-1.54248047 2.16046143-3.3914795 2.16046143-5.548645V300.93066406c0-2.15881348-0.61798096-4.00946045-2.16046143-5.24212646-1.54412842-1.54248047-3.3914795-2.46697998-5.54864502-2.46697999h-77.08117675c-2.16046143 0.00164795-4.0078125 0.92449951-5.24377442 2.46697999z m12.95288086 12.9512329h61.66461182v61.66296388h-61.66461182v-61.66296387zM532.70977783 295.6885376c-1.54083252 1.23266602-2.15881348 3.08331299-2.15881348 5.24212646v77.08117676c0 2.15716551 0.61798096 4.0078125 2.15881348 5.54864501 1.54248047 1.54248047 3.3914795 2.15881348 5.55029298 2.15881349h77.0795288c2.16046143 0 4.0078125-0.61798096 5.54864502-2.15881349 1.23596192-1.54248047 2.15881348-3.3914795 2.15881347-5.548645V300.93066406c0-2.15881348-0.92285156-4.00946045-2.15881347-5.24212646-1.54248047-1.54248047-3.38983154-2.46697998-5.54864502-2.46697999h-77.0795288c-2.16046143 0.00164795-4.00946045 0.92449951-5.55029298 2.46697999z m13.25939941 12.9512329h61.66296388v61.66296388h-61.66296388v-61.66296387z" fill="" p-id="1239"></path><path d="M881.73388672 214.9060669c0-46.24804688-23.12402345-69.37207031-69.37371826-69.37207032H221.30175781c-46.24804688 0-69.37207031 23.12402345-69.37207031 69.37207032v591.05841063c0 46.24804688 23.12402345 69.37371826 69.37207031 69.37371827h591.05841065c46.24804688 0 69.37371826-23.12402345 69.37371826-69.37371827V214.9060669z m-69.37371826-53.95550539c36.07525635 0 53.95715332 17.88354492 53.95715332 53.95550539v591.05841063c0 35.7654419-17.88354492 53.95715332-53.95715332 53.95715333H221.30175781c-35.76379394 0-53.95550537-18.19171143-53.95550537-53.95715333V214.9060669c0-36.07360839 18.19171143-53.95550537 53.95550537-53.95550539h591.05841065z" fill="" p-id="1240"></path></svg>