<?xml version="1.0" standalone="no"?><!DOCTYPE svg PUBLIC "-//W3C//DTD SVG 1.1//EN" "http://www.w3.org/Graphics/SVG/1.1/DTD/svg11.dtd"><svg t="1577933182401" class="icon" viewBox="0 0 1024 1024" version="1.1" xmlns="http://www.w3.org/2000/svg" p-id="7843" xmlns:xlink="http://www.w3.org/1999/xlink" width="200" height="200"><defs><style type="text/css"></style></defs><path d="M480.23521503 594.10222028l-75.37912703-78.76471675-21.60801997 33.65673158 96.4892669 100.87061683L694.42346523 425.51983812l-21.60801995-33.65673159-192.58023025 202.23911375zM823.57370074 615.71024025v180.0336371c0 49.58891168-38.53596164 89.81766678-85.93419699 89.8176668H286.75880116c-47.39823669 0-85.93419695-40.22875511-85.93419835-89.8176668v-526.75771112c0-49.58891168 38.53596164-89.81766678 85.93419835-89.81766681h67.71176534c9.36015655 32.26266507 38.13765671 56.1609352 71.99354007 56.1609352h171.86839531c33.85588337 0 62.63338354-23.89827013 71.99354008-56.1609352h67.71176671c47.39823669 0 85.93419695 40.22875511 85.93419698 89.81766681-0.39830492 0-0.39830492 269.3534238-0.39830491 346.72407402zM426.46410657 111.45673271h171.86839531c23.69911836 0 42.71815843 19.9152251 42.71815842 44.70968162s-19.01904006 44.70968162-42.71815842 44.70968025H426.46410657c-23.69911836 0-42.71815843-19.9152251-42.71815841-44.70968025-0.39830492-24.39615161 19.01904006-44.70968162 42.71815841-44.70968162z m322.22834722 34.05503513h-76.17573686c-5.0783818-38.03808015-36.44486186-67.21388524-74.48294339-67.21388523H426.06580305c-37.63977661 0-69.00625666 29.17580508-74.4829434 67.21388523h-76.17573688c-59.24779519 0-107.54221692 50.38552012-107.54221691 112.32187175v549.3614927c0 61.93635164 48.29442173 112.32187177 107.54221691 112.3218704h473.28533102c59.24779519 0 107.54221692-50.38552012 107.54221693-112.3218704V257.43533468c-0.49788011-61.93635164-48.29442173-111.92356686-107.54221693-111.92356684z" p-id="7844"></path></svg>