<?xml version="1.0" encoding="UTF-8"?>
<svg width="26px" height="26px" viewBox="0 0 26 26" version="1.1" xmlns="http://www.w3.org/2000/svg" xmlns:xlink="http://www.w3.org/1999/xlink">
    <!-- Generator: Sketch 52.2 (67145) - http://www.bohemiancoding.com/sketch -->
    <title>一体化定制管理</title>
    <desc>Created with Sketch.</desc>
    <g id="Page-1" stroke="none" stroke-width="1" fill="none" fill-rule="evenodd">
        <g id="一体化定制管理" fill="#000000" fill-rule="nonzero">
            <path d="M5.77777779,2.16666667 L10.1111111,7.04166667 L10.1111111,24.5555555 L1.44444446,24.5555555 L1.44444446,7.04888888 L5.77777779,2.16666667 Z M5.77777779,0 L2.84217094e-14,6.5 L2.84217094e-14,26 L11.5555555,26 L11.5555555,6.5 L5.77777779,0 Z M24.5555555,2.88888888 L24.5555555,24.5555555 L15.8888889,24.5555555 L15.8888889,2.88888888 L24.5555555,2.88888888 Z M26,1.44444446 L14.4444445,1.44444446 L14.4444445,26 L26,26 L26,1.44444446 Z" id="Shape"></path>
            <path d="M0,6.5 L11.5555555,6.5 L11.5555555,7.94444446 L0,7.94444446 L0,6.5 Z M0,20.2222222 L11.5555555,20.2222222 L11.5555555,21.6666667 L0,21.6666667 L0,20.2222222 Z M21.6666667,6.5 L26,6.5 L26,7.94444446 L21.6666667,7.94444446 L21.6666667,6.5 Z M21.6666667,13 L26,13 L26,14.4444445 L21.6666667,14.4444445 L21.6666667,13 Z M21.6666667,19.5 L26,19.5 L26,20.9444445 L21.6666667,20.9444445 L21.6666667,19.5 Z" id="Shape"></path>
        </g>
    </g>
</svg>